<svg width="1024" height="559" viewBox="0 0 1024 559" fill="none" xmlns="http://www.w3.org/2000/svg">
<rect width="1024" height="559" fill="#1E1E1E"/>
<path d="M520 66C520.33 66.66 520.66 67.32 521 68C520.526 69.4438 520.051 70.8875 519.562 72.375C519.047 74.2313 518.531 76.0875 518 78C517.856 79.9594 517.711 81.9188 517.562 83.9375C517.779 86.9384 517.779 86.9384 518 90C518.804 92.8153 518.804 92.8153 519.625 95.6875C520.801 98.3172 520.801 98.3172 522 101C522.846 102.485 523.691 103.97 524.562 105.5C525.697 106.985 526.831 108.47 528 110C529.712 111.815 531.424 113.63 533.188 115.5C535.106 117.315 537.024 119.13 539 121C540.898 122.588 542.795 124.176 544.75 125.812C546.482 127.194 548.215 128.576 550 130C551.887 131.516 551.887 131.516 553.812 133.062C555.39 134.517 555.39 134.517 557 136C558.578 137.949 558.578 137.949 560.188 139.938C561.58 141.948 561.58 141.948 563 144C564.98 147.465 564.98 147.465 567 151C566.897 148.133 566.794 145.266 566.688 142.312C566.689 139.714 566.689 139.714 566.691 137.062C566.793 135.392 566.895 133.721 567 132C567.701 129.628 568.402 127.256 569.125 124.812C570.074 122.894 571.022 120.976 572 119C573.072 117.412 574.145 115.824 575.25 114.188C576.158 113.136 577.065 112.084 578 111C578.33 111 578.66 111 579 111C579.248 112.774 579.495 114.548 579.75 116.375C580.369 119.654 580.369 119.654 581 123C581.681 124.691 582.361 126.383 583.062 128.125C584.032 129.734 585.001 131.342 586 133C587.887 135.289 587.887 135.289 589.812 137.625C591.524 139.399 593.236 141.173 595 143C596.262 144.219 597.524 145.439 598.824 146.695C600.202 148.033 601.58 149.371 603 150.75C604.378 152.123 605.756 153.496 607.176 154.91C608.438 156.26 609.7 157.609 611 159C612.712 161.372 614.424 163.744 616.188 166.188C617.446 168.436 618.704 170.684 620 173C620.949 175.186 621.897 177.372 622.875 179.625C623.576 181.729 624.277 183.832 625 186C625.866 189.094 625.866 189.094 626.75 192.25C627.162 194.148 627.575 196.045 628 198C628.227 199.732 628.454 201.465 628.688 203.25C628.791 204.487 628.894 205.725 629 207C630.65 206.34 632.3 205.68 634 205C634.66 203.68 635.32 202.36 636 201C636.083 199.288 636.165 197.576 636.25 195.812C636.167 193.894 636.085 191.976 636 190C635.567 187.649 635.567 187.649 635.125 185.25C634.754 183.847 634.382 182.445 634 181C633.34 178.69 632.68 176.38 632 174C632.928 174.743 633.856 175.485 634.812 176.25C636.194 177.487 637.576 178.725 639 180C640.712 181.753 642.424 183.506 644.188 185.312C646.106 187.519 648.024 189.726 650 192C651.021 193.319 652.042 194.637 653.094 195.996C654.115 197.4 655.136 198.804 656.188 200.25C657.682 202.416 657.682 202.416 659.207 204.625C660.59 206.791 660.59 206.791 662 209C662.767 210.382 663.534 211.764 664.324 213.188C665.001 214.528 665.678 215.869 666.375 217.25C667.571 219.807 668.768 222.365 670 225C671.052 227.104 672.104 229.207 673.188 231.375C674.116 233.561 675.044 235.747 676 238C676.866 240.826 677.733 243.651 678.625 246.562C679.222 248.877 679.222 248.877 679.832 251.238C680.41 253.595 680.41 253.595 681 256C681.594 258.249 681.594 258.249 682.199 260.543C682.567 262.096 682.934 263.65 683.312 265.25C683.631 266.901 683.949 268.553 684.277 270.254C684.516 272.15 684.754 274.046 685 276C685.104 278.422 685.209 280.844 685.316 283.34C685.345 287.224 685.345 287.224 685.375 291.188C685.336 293.751 685.298 296.315 685.258 298.957C685.13 302.443 685.13 302.443 685 306C684.841 308.543 684.841 308.543 684.68 311.137C684.467 313.235 684.467 313.235 684.25 315.375C683.838 317.891 683.425 320.408 683 323C682.423 325.619 681.845 328.239 681.25 330.938C680.507 333.598 679.765 336.259 679 339C678.368 341.146 678.368 341.146 677.723 343.336C677.257 344.813 676.792 346.29 676.312 347.812C675.799 349.309 675.286 350.806 674.758 352.348C673.888 354.651 673.888 354.651 673 357C672.317 358.607 671.634 360.215 670.93 361.871C670.19 363.481 669.45 365.091 668.688 366.75C667.921 368.32 667.154 369.89 666.363 371.508C665.583 372.99 664.804 374.473 664 376C662.474 378.516 660.947 381.033 659.375 383.625C657.931 385.729 656.487 387.832 655 390C653.866 391.547 652.731 393.094 651.562 394.688C650.387 396.111 649.211 397.534 648 399C646.309 400.898 644.617 402.795 642.875 404.75C641.266 406.482 639.658 408.215 638 410C636.35 411.65 634.7 413.3 633 415C631.268 416.671 629.535 418.341 627.75 420.062C625.523 422.022 623.295 423.981 621 426C619.703 427 618.406 428.001 617.07 429.031C615.686 430.032 614.301 431.032 612.875 432.062C610.698 433.557 610.698 433.557 608.477 435.082C606.999 436.045 605.522 437.008 604 438C602.564 438.891 601.128 439.781 599.648 440.699C598.197 441.541 596.745 442.383 595.25 443.25C593.017 444.455 593.017 444.455 590.738 445.684C589.175 446.448 587.611 447.212 586 448C584.282 448.733 582.563 449.467 580.793 450.223C579.026 450.912 577.258 451.602 575.438 452.312C573.681 452.951 571.924 453.589 570.113 454.246C567.582 455.114 567.582 455.114 565 456C563.488 456.507 561.976 457.013 560.418 457.535C559.001 457.977 557.585 458.419 556.125 458.875C553.444 459.576 550.763 460.277 548 461C545.236 461.412 542.473 461.825 539.625 462.25C537.439 462.498 535.253 462.745 533 463C532.01 463.33 531.02 463.66 530 464C527.704 464.079 525.408 464.157 523.043 464.238C520.121 464.263 517.198 464.287 514.188 464.312C511.878 464.316 511.878 464.316 509.521 464.319C507.982 464.307 506.442 464.294 504.855 464.281C501.933 464.188 499.011 464.096 496 464C492.777 463.644 492.777 463.644 489.488 463.281C487.677 462.962 485.866 462.642 484 462.312C482.291 461.943 480.581 461.573 478.82 461.191C477.23 460.798 475.639 460.405 474 460C472.471 459.638 470.942 459.276 469.367 458.902C467.885 458.522 466.402 458.142 464.875 457.75C463.427 457.325 461.98 456.899 460.488 456.461C458.267 455.738 458.267 455.738 456 455C454.385 454.435 452.77 453.871 451.105 453.289C448.609 452.342 448.609 452.342 446.062 451.375C444.398 450.687 442.734 449.998 441.02 449.289C439.363 448.534 437.707 447.778 436 447C434.374 446.162 432.749 445.324 431.074 444.461C429.482 443.566 427.89 442.672 426.25 441.75C424.697 440.817 423.143 439.883 421.543 438.922C420.044 437.958 418.545 436.993 417 436C415.573 435.015 414.146 434.03 412.676 433.016C411.318 432.02 409.961 431.025 408.562 430C407.275 429.005 405.987 428.01 404.66 426.984C403.452 426 402.244 425.015 401 424C398.855 422.102 396.71 420.205 394.5 418.25C392.685 416.518 390.87 414.785 389 413C387.701 411.804 386.401 410.607 385.062 409.375C383.722 407.931 382.381 406.487 381 405C379.467 403.111 379.467 403.111 377.902 401.184C376.78 399.741 375.657 398.299 374.5 396.812C373.382 395.325 372.265 393.837 371.113 392.305C369.572 390.174 369.572 390.174 368 388C366.577 385.834 365.154 383.669 363.688 381.438C362.471 379.313 361.254 377.189 360 375C358.68 372.587 357.36 370.174 356 367.688C355.02 365.688 355.02 365.688 354.02 363.648C353.353 362.114 352.687 360.58 352 359C350.923 356.08 350.923 356.08 349.824 353.102C348.767 349.988 348.767 349.988 347.688 346.812C346.699 343.732 346.699 343.732 345.691 340.59C345.133 338.745 344.575 336.901 344 335C343.381 332.649 342.762 330.297 342.125 327.875C341.754 325.936 341.382 323.997 341 322C340.608 319.896 340.216 317.793 339.812 315.625C339.41 311.851 339.41 311.851 339 308C338.923 305.274 338.923 305.274 338.844 302.492C338.833 300.515 338.823 298.537 338.812 296.5C338.837 294.507 338.861 292.514 338.887 290.461C338.924 288.659 338.961 286.857 339 285C339.041 282.731 339.082 280.463 339.125 278.125C339.558 274.598 339.558 274.598 340 271C340.382 269.106 340.763 267.213 341.156 265.262C341.641 263.133 342.126 261.005 342.625 258.812C343.17 256.648 343.716 254.484 344.277 252.254C344.846 250.19 345.414 248.126 346 246C346.517 244.318 347.034 242.636 347.566 240.902C348.369 238.599 348.369 238.599 349.188 236.25C349.775 234.743 350.363 233.236 350.969 231.684C351.974 229.365 351.974 229.365 353 227C353.815 225.258 354.629 223.517 355.469 221.723C356.366 219.937 357.263 218.152 358.188 216.312C359.603 213.692 359.603 213.692 361.047 211.02C362.021 209.363 362.996 207.707 364 206C364.975 204.539 365.949 203.079 366.953 201.574C367.938 200.23 368.923 198.885 369.938 197.5C370.924 196.242 371.91 194.984 372.926 193.688C373.94 192.471 374.955 191.254 376 190C377.107 188.721 378.215 187.442 379.355 186.125C380.434 184.929 381.513 183.732 382.625 182.5C385.286 179.777 385.286 179.777 388 177C388.66 177 389.32 177 390 177C390.495 175.515 390.495 175.515 391 174C391.99 174.495 391.99 174.495 393 175C392.402 176.774 391.804 178.548 391.188 180.375C390.466 182.231 389.744 184.087 389 186C388.505 187.485 388.505 187.485 388 189C387.917 190.753 387.835 192.506 387.75 194.312C387.833 196.189 387.915 198.066 388 200C388.99 201.98 389.98 203.96 391 206C392.32 206 393.64 206 395 206C395.539 204.061 395.539 204.061 396.09 202.082C396.37 200.343 396.649 198.604 396.938 196.812C397.271 194.983 397.605 193.154 397.949 191.27C398.296 189.531 398.643 187.792 399 186C399.743 183.69 400.485 181.38 401.25 179C402.158 177.02 403.065 175.04 404 173C405.237 170.958 406.475 168.916 407.75 166.812C409.854 163.935 409.854 163.935 412 161C413.506 159.247 415.011 157.494 416.562 155.688C418.027 154.141 419.491 152.594 421 151C422.217 149.742 423.434 148.484 424.688 147.188C425.781 146.136 426.874 145.084 428 144C429.98 142.35 431.96 140.7 434 139C435.825 136.68 435.825 136.68 437.688 134.312C439.327 131.683 439.327 131.683 441 129C441.619 127.309 442.238 125.617 442.875 123.875C443.432 121.462 443.432 121.462 444 119C444.33 116.36 444.66 113.72 445 111C445.66 111 446.32 111 447 111C448.134 112.629 449.269 114.259 450.438 115.938C452.201 118.938 452.201 118.938 454 122C454.639 123.403 455.279 124.805 455.938 126.25C456.288 127.817 456.639 129.385 457 131C457.103 133.392 457.206 135.785 457.312 138.25C457.209 140.807 457.106 143.365 457 146C456.67 148.454 456.34 150.909 456 153.438C455.505 156.191 455.505 156.191 455 159C457.64 157.68 460.28 156.36 463 155C464.093 153.453 465.186 151.906 466.312 150.312C467.643 147.683 467.643 147.683 469 145C469.512 143.628 470.024 142.257 470.551 140.844C471.029 139.245 471.507 137.647 472 136C472.491 133.392 472.491 133.392 472.992 130.73C473.429 127.987 473.429 127.987 473.875 125.188C474.218 123.255 474.561 121.323 474.914 119.332C475.272 117.572 475.631 115.813 476 114C477.114 110.721 477.114 110.721 478.25 107.375C479.158 105.601 480.065 103.827 481 102C482.763 99.03 482.763 99.03 484.562 96C486.027 94.02 487.491 92.04 489 90C491.908 86.8753 491.908 86.8753 494.875 83.6875C496.896 81.8106 498.918 79.9338 501 78C502.712 76.7006 504.424 75.4013 506.188 74.0625C507.776 73.0519 509.364 72.0412 511 71C512.671 69.9894 514.341 68.9787 516.062 67.9375C517.362 67.2981 518.661 66.6587 520 66ZM511 143C509.68 145.64 508.36 148.28 507 151C506.34 153.31 505.68 155.62 505 158C505 159.98 505 161.96 505 164C502.133 164.33 499.266 164.66 496.312 165C494.479 165.135 492.646 165.271 490.758 165.41C487.908 165.702 487.908 165.702 485 166C483.286 166.349 481.571 166.699 479.805 167.059C477.272 167.741 477.272 167.741 474.688 168.438C472.96 168.965 471.233 169.492 469.453 170.035C466.754 171.008 466.754 171.008 464 172C462.015 172.844 460.03 173.689 457.984 174.559C454.991 175.953 454.991 175.953 451.938 177.375C450.025 178.329 448.112 179.283 446.141 180.266C444.444 181.168 442.748 182.07 441 183C437.628 185.042 437.628 185.042 434.188 187.125C431.62 189.043 431.62 189.043 429 191C427.268 192.506 425.535 194.011 423.75 195.562C422.183 197.027 420.615 198.491 419 200C417.659 201.114 416.319 202.227 414.938 203.375C413.638 204.571 412.339 205.768 411 207C409.556 208.65 408.112 210.3 406.625 212C405.099 213.98 403.572 215.96 402 218C400.329 220.372 398.659 222.744 396.938 225.188C396.105 226.468 395.272 227.748 394.414 229.066C393.617 230.364 392.821 231.663 392 233C390.618 235.516 389.236 238.033 387.812 240.625C387.177 241.942 386.541 243.26 385.887 244.617C385.264 246.064 384.641 247.51 384 249C383.346 250.735 382.693 252.47 382.02 254.258C381.082 256.976 381.082 256.976 380.125 259.75C379.559 261.525 378.993 263.3 378.41 265.129C377.945 266.736 377.479 268.344 377 270C376.526 272.207 376.051 274.414 375.562 276.688C375.377 278.441 375.191 280.194 375 282C375.144 283.877 375.289 285.754 375.438 287.688C375.221 289.822 375.221 289.822 375 292C373.082 292.402 373.082 292.402 371.125 292.812C369.434 292.874 367.742 292.936 366 293C364.164 293.846 362.329 294.691 360.438 295.562C358.241 296.769 358.241 296.769 356 298C358.475 300.475 358.475 300.475 361 303C362.856 303.598 364.712 304.196 366.625 304.812C368.399 305.204 370.173 305.596 372 306C372.99 306 373.98 306 375 306C375.028 307.451 375.057 308.903 375.086 310.398C375.043 313.171 375.043 313.171 375 316C375.219 317.58 375.438 319.161 375.664 320.789C375.981 322.385 376.298 323.981 376.625 325.625C376.996 327.368 377.368 329.111 377.75 330.906C378.162 332.587 378.575 334.268 379 336C380.299 340.022 380.299 340.022 381.625 344.125C382.739 346.724 383.852 349.322 385 352C385.768 353.52 386.537 355.04 387.328 356.605C388.589 358.935 388.589 358.935 389.875 361.312C390.737 362.814 391.6 364.316 392.488 365.863C393.732 367.911 393.732 367.911 395 370C396.341 371.98 397.681 373.96 399.062 376C400.362 377.65 401.661 379.3 403 381C404.609 382.815 406.217 384.63 407.875 386.5C409.236 387.985 410.597 389.47 412 391C412.66 391.99 413.32 392.98 414 394C414.66 394 415.32 394 416 394C416.33 394.99 416.66 395.98 417 397C419.042 398.691 421.084 400.383 423.188 402.125C424.456 403.1 425.724 404.074 427.031 405.078C428.996 406.524 428.996 406.524 431 408C433.372 409.609 435.744 411.217 438.188 412.875C440.436 414.236 442.684 415.597 445 417C446.918 417.928 448.836 418.856 450.812 419.812C453.38 420.895 453.38 420.895 456 422C457.361 422.66 458.722 423.32 460.125 424C461.734 424.66 463.342 425.32 465 426C467.784 426.866 470.569 427.733 473.438 428.625C476.263 429.409 479.089 430.192 482 431C483.732 431.412 485.465 431.825 487.25 432.25C489.601 432.621 489.601 432.621 492 433C495.372 432.907 495.372 432.907 498.812 432.812C500.854 433.204 502.896 433.596 505 434C506.011 436.145 507.021 438.29 508.062 440.5C508.702 442.645 509.341 444.79 510 447C511.32 447.33 512.64 447.66 514 448C515.32 445.36 516.64 442.72 518 440C518.33 437.69 518.66 435.38 519 433C520.691 432.917 522.383 432.835 524.125 432.75C526.394 432.833 528.662 432.915 531 433C533.392 432.608 535.785 432.216 538.25 431.812C540.807 431.214 543.365 430.616 546 430C548.64 429.257 551.28 428.515 554 427.75C556.64 426.842 559.28 425.935 562 425C565.743 423.391 565.743 423.391 569.562 421.75C572.017 420.513 574.471 419.275 577 418C579.578 416.536 582.156 415.071 584.812 413.562C587.184 412.057 589.556 410.551 592 409C593.753 407.68 595.506 406.36 597.312 405C599.633 403.02 599.633 403.02 602 401C603.691 399.536 605.383 398.071 607.125 396.562C608.734 395.057 610.342 393.551 612 392C613.361 390.556 614.722 389.112 616.125 387.625C617.404 386.099 618.683 384.572 620 383C621.32 381.268 622.64 379.535 624 377.75C625.32 375.852 626.64 373.955 628 372C629.361 369.896 630.722 367.793 632.125 365.625C633.404 363.439 634.683 361.253 636 359C637.011 357.123 638.021 355.246 639.062 353.312C640.517 349.693 640.517 349.693 642 346C642.612 343.984 643.225 341.968 643.855 339.891C644.481 337.637 645.106 335.384 645.75 333.062C646.346 330.816 646.941 328.569 647.555 326.254C648.032 324.19 648.509 322.126 649 320C649.289 317.195 649.577 314.39 649.875 311.5C650.246 309.685 650.618 307.87 651 306C652.361 305.484 653.722 304.969 655.125 304.438C657.538 304.221 657.538 304.221 660 304C661.506 303.134 663.011 302.267 664.562 301.375C665.697 300.591 666.831 299.808 668 299C666.68 297.68 665.36 296.36 664 295C662.164 294.423 660.329 293.845 658.438 293.25C656.643 292.838 654.849 292.425 653 292C652.01 292 651.02 292 650 292C649.567 288.102 649.567 288.102 649.125 284.125C648.969 282.485 648.813 280.846 648.652 279.156C648.437 277.455 648.222 275.753 648 274C647.651 272.422 647.301 270.844 646.941 269.219C646.528 267.703 646.114 266.187 645.688 264.625C645.245 263.137 644.803 261.65 644.348 260.117C643.903 258.759 643.458 257.4 643 256C641.824 252.906 641.824 252.906 640.625 249.75C639.759 247.852 638.892 245.955 638 244C636.546 240.752 636.546 240.752 635.062 237.438C633.052 233.756 633.052 233.756 631 230C629.975 228.463 628.95 226.927 627.895 225.344C626.733 223.725 625.572 222.106 624.375 220.438C622.542 218.021 622.542 218.021 620.672 215.555C618.854 213.3 618.854 213.3 617 211C615.933 209.786 614.865 208.571 613.766 207.32C612.729 206.245 611.693 205.17 610.625 204.062C608.439 202.062 606.253 200.061 604 198C602.743 196.962 601.486 195.925 600.191 194.855C598.209 193.318 598.209 193.318 596.188 191.75C594.838 190.772 593.488 189.793 592.098 188.785C590.745 187.866 589.393 186.947 588 186C586.049 184.761 586.049 184.761 584.059 183.496C582.761 182.734 581.462 181.972 580.125 181.188C578.801 180.475 577.477 179.762 576.113 179.027C574.756 178.358 573.399 177.689 572 177C570.591 176.362 569.182 175.724 567.73 175.066C566.273 174.467 564.815 173.868 563.312 173.25C561.82 172.697 560.327 172.144 558.789 171.574C557.209 171.055 555.628 170.535 554 170C552.234 169.491 550.468 168.982 548.648 168.457C546.846 167.997 545.044 167.537 543.188 167.062C540.571 166.451 540.571 166.451 537.902 165.828C536.285 165.555 534.667 165.282 533 165C529.164 165.155 529.164 165.155 525.25 165.312C523.518 165.209 521.785 165.106 520 165C519.649 163.577 519.299 162.154 518.938 160.688C518.958 158.811 518.979 156.934 519 155C518.402 152.999 517.804 150.999 517.188 148.938C516.466 147.308 515.744 145.679 515 144C513.02 143.505 513.02 143.505 511 143Z" fill="#C9572A"/>
<path d="M376 216C376.66 216.33 377.32 216.66 378 217C378.351 218.423 378.701 219.846 379.062 221.312C379.527 223.633 379.527 223.633 380 226C380.33 227.32 380.66 228.64 381 230C381.66 230 382.32 230 383 230C383.99 230.99 384.98 231.98 386 233C388.475 233.99 388.475 233.99 391 235C389.907 237.743 388.814 240.486 387.688 243.312C386.529 245.886 386.529 245.886 385.348 248.512C384.573 250.323 383.798 252.134 383 254C382.401 255.76 381.801 257.519 381.184 259.332C380.412 261.952 380.412 261.952 379.625 264.625C379.135 266.357 378.645 268.09 378.141 269.875C377.764 271.566 377.388 273.258 377 275C376.871 276.65 376.742 278.3 376.609 280C376.493 282.289 376.493 282.289 376.375 284.625C375.921 287.059 375.468 289.493 375 292C372.154 293.176 372.154 293.176 369.25 294.375C366.156 294.684 366.156 294.684 363 295C361.02 295.99 359.04 296.98 357 298C358.32 299.32 359.64 300.64 361 302C363.331 302.289 365.661 302.577 368.062 302.875C370.352 303.906 372.641 304.938 375 306C375.464 307.513 375.928 309.027 376.406 310.586C376.623 312.455 376.839 314.324 377.062 316.25C377.285 319.208 377.285 319.208 377.512 322.227C377.673 324.132 377.834 326.037 378 328C378.784 330.846 379.567 333.693 380.375 336.625C381.241 339.059 382.108 341.493 383 344C383.763 346.021 384.526 348.043 385.312 350.125C386.199 352.064 387.086 354.003 388 356C389.258 358.331 390.516 360.661 391.812 363.062C393.885 366.497 393.885 366.497 396 370C397.299 371.898 398.599 373.795 399.938 375.75C401.278 377.482 402.619 379.215 404 381C406.351 383.661 406.351 383.661 408.75 386.375C410.854 388.664 410.854 388.664 413 391C414.98 393.475 414.98 393.475 417 396C419.104 397.732 421.207 399.465 423.375 401.25C424.616 402.206 425.858 403.163 427.137 404.148C428.412 405.089 429.686 406.03 431 407C433.372 408.609 435.744 410.217 438.188 411.875C440.436 413.236 442.684 414.597 445 416C446.918 416.928 448.836 417.856 450.812 418.812C452.524 419.534 454.236 420.256 456 421C457.361 421.66 458.722 422.32 460.125 423C461.734 423.66 463.342 424.32 465 425C467.784 425.866 470.569 426.733 473.438 427.625C476.263 428.409 479.089 429.192 482 430C484.599 430.619 484.599 430.619 487.25 431.25C489.601 431.621 489.601 431.621 492 432C494.248 431.979 496.496 431.959 498.812 431.938C500.854 432.288 502.896 432.639 505 433C506.072 434.774 507.145 436.548 508.25 438.375C508.827 440.231 509.405 442.087 510 444C510.33 444.99 510.66 445.98 511 447C511.99 447.33 512.98 447.66 514 448C514.66 445.69 515.32 443.38 516 441C516.99 438.36 517.98 435.72 519 433C521.743 432.629 524.486 432.257 527.312 431.875C529.869 431.707 529.869 431.707 532.477 431.535C535.211 431.27 535.211 431.27 538 431C539.843 430.607 541.687 430.214 543.586 429.809C546.359 429.068 546.359 429.068 549.188 428.312C551.033 427.775 552.879 427.237 554.781 426.684C556.503 426.128 558.226 425.572 560 425C564.053 423.453 564.053 423.453 568.188 421.875C570.766 420.596 573.344 419.317 576 418C577.556 417.112 579.112 416.224 580.715 415.309C582.335 414.32 583.956 413.331 585.625 412.312C587.214 411.279 588.804 410.245 590.441 409.18C591.946 408.13 593.45 407.081 595 406C596.963 404.488 596.963 404.488 598.965 402.945C600.746 401.456 600.746 401.456 602.562 399.938C604.687 397.978 606.811 396.019 609 394C611.661 391.247 611.661 391.247 614.375 388.438C616.664 385.746 616.664 385.746 619 383C620.361 381.226 621.722 379.452 623.125 377.625C624.404 375.769 625.683 373.913 627 372C628.361 369.896 629.722 367.793 631.125 365.625C632.404 363.439 633.683 361.253 635 359C636.011 357.123 637.021 355.246 638.062 353.312C639.517 349.693 639.517 349.693 641 346C641.612 343.984 642.225 341.968 642.855 339.891C643.793 336.511 643.793 336.511 644.75 333.062C645.342 330.816 645.933 328.569 646.543 326.254C647.024 324.19 647.505 322.126 648 320C648.351 317.195 648.701 314.39 649.062 311.5C649.372 309.685 649.681 307.87 650 306C651.98 305.34 653.96 304.68 656 304C658.63 303.01 658.63 303.01 661.312 302C663.633 301.01 663.633 301.01 666 300C666.33 299.34 666.66 298.68 667 298C665.701 297.34 664.401 296.68 663.062 296C661.392 295.34 659.721 294.68 658 294C655.36 293.34 652.72 292.68 650 292C649.588 290.35 649.175 288.7 648.75 287C648.502 284.69 648.255 282.38 648 280C647.196 275.823 647.196 275.823 646.375 271.562C645.863 269.283 645.863 269.283 645.34 266.957C644.898 265.321 644.456 263.685 644 262C643.362 260.148 642.724 258.295 642.066 256.387C641.364 254.527 640.661 252.666 639.938 250.75C639.266 249.033 638.594 247.316 637.902 245.547C637.275 244.046 636.647 242.546 636 241C635.01 239.02 634.02 237.04 633 235C635.64 233.68 638.28 232.36 641 231C642.32 229.02 643.64 227.04 645 225C645.412 223.391 645.825 221.783 646.25 220.125C646.621 218.083 646.621 218.083 647 216C648.98 217.98 648.98 217.98 651 220C652.258 222.454 653.516 224.909 654.812 227.438C655.503 228.952 656.194 230.467 656.906 232.027C657.597 233.668 658.288 235.309 659 237C659.65 238.713 660.299 240.426 660.969 242.191C661.577 243.943 662.186 245.695 662.812 247.5C663.378 249.26 663.944 251.019 664.527 252.832C665.013 254.537 665.499 256.243 666 258C666.528 260.357 666.528 260.357 667.066 262.762C667.467 264.952 667.467 264.952 667.875 267.188C668.246 269.766 668.618 272.344 669 275C669.183 276.586 669.366 278.171 669.555 279.805C669.702 281.519 669.849 283.234 670 285C670.067 286.762 670.134 288.524 670.203 290.34C670.219 292.187 670.234 294.034 670.25 295.938C670.231 298.962 670.231 298.962 670.211 302.047C670.141 304.011 670.072 305.976 670 308C669.772 310.483 669.772 310.483 669.539 313.016C669.32 314.557 669.101 316.099 668.875 317.688C668.598 319.216 668.321 320.745 668.035 322.32C667.694 323.865 667.352 325.409 667 327C666.586 328.647 666.172 330.295 665.746 331.992C665.036 334.502 665.036 334.502 664.312 337.062C663.788 338.719 663.263 340.375 662.723 342.082C662.154 343.705 661.586 345.328 661 347C660.101 349.326 660.101 349.326 659.184 351.699C658.546 353.201 657.907 354.703 657.25 356.25C656.237 358.439 656.237 358.439 655.203 360.672C654.476 362.1 653.749 363.528 653 365C652.19 366.428 651.381 367.857 650.547 369.328C649.286 371.393 649.286 371.393 648 373.5C647.153 374.805 646.306 376.109 645.434 377.453C644.631 378.624 643.827 379.794 643 381C641.701 382.732 640.401 384.465 639.062 386.25C637.722 387.817 636.381 389.385 635 391C633.268 392.959 631.535 394.919 629.75 396.938C627.852 398.938 625.955 400.939 624 403C622.061 404.877 620.122 406.754 618.125 408.688C616.104 410.441 614.082 412.194 612 414C609.917 415.526 607.834 417.053 605.688 418.625C602.377 420.791 602.377 420.791 599 423C596.587 424.526 594.174 426.053 591.688 427.625C589.151 429.069 586.614 430.513 584 432C581.339 433.237 578.679 434.475 575.938 435.75C573.318 436.822 570.699 437.895 568 439C565.876 439.866 563.751 440.733 561.562 441.625C559.067 442.409 556.571 443.192 554 444C552.202 444.468 550.404 444.936 548.551 445.418C546.513 445.878 544.475 446.338 542.375 446.812C540.222 447.221 538.07 447.63 535.852 448.051C533.591 448.364 531.33 448.677 529 449C526.656 449.138 524.313 449.276 521.898 449.418C519.539 449.445 517.18 449.472 514.75 449.5C512.413 449.451 510.076 449.402 507.668 449.352C505.468 449.236 503.267 449.12 501 449C499.119 448.843 497.239 448.685 495.301 448.523C493.572 448.309 491.844 448.095 490.062 447.875C488.396 447.598 486.729 447.321 485.012 447.035C483.358 446.694 481.704 446.352 480 446C478.253 445.586 476.507 445.172 474.707 444.746C472.068 444.036 472.068 444.036 469.375 443.312C467.648 442.789 465.92 442.266 464.141 441.727C462.444 441.157 460.748 440.587 459 440C457.345 439.389 455.69 438.778 453.984 438.148C452.381 437.501 450.777 436.854 449.125 436.188C447.581 435.511 446.036 434.834 444.445 434.137C442.978 433.432 441.511 432.726 440 432C437.954 430.896 437.954 430.896 435.867 429.77C434.591 429.021 433.315 428.272 432 427.5C429.69 426.015 427.38 424.53 425 423C423.164 421.742 421.329 420.484 419.438 419.188C417.643 417.806 415.849 416.424 414 415C412.831 414.047 411.662 413.095 410.457 412.113C409.234 411.086 408.01 410.059 406.75 409C405.567 407.973 404.383 406.945 403.164 405.887C402.12 404.934 401.076 403.981 400 403C398.721 401.618 397.442 400.236 396.125 398.812C394.578 396.925 394.578 396.925 393 395C391.742 393.659 390.484 392.319 389.188 390.938C387.806 389.308 386.424 387.679 385 386C382.525 382.504 382.525 382.504 380 378.938C379.161 377.65 378.322 376.362 377.457 375.035C376.241 373.038 376.241 373.038 375 371C374.261 369.658 373.523 368.316 372.762 366.934C372.077 365.594 371.393 364.255 370.688 362.875C369.471 360.276 368.254 357.678 367 355C366.113 352.876 365.226 350.751 364.312 348.562C363.168 345.314 363.168 345.314 362 342C361.134 339.422 360.267 336.844 359.375 334.188C358.762 332.045 358.762 332.045 358.137 329.859C357.762 328.256 357.386 326.652 357 325C356.676 323.066 356.353 321.133 356.02 319.141C355.745 317.094 355.47 315.047 355.188 312.938C354.962 310.888 354.736 308.838 354.504 306.727C354.338 304.837 354.171 302.947 354 301C353.876 298.298 353.752 295.596 353.625 292.812C353.749 290.234 353.873 287.656 354 285C354.166 283.346 354.333 281.692 354.504 279.988C354.729 278.218 354.955 276.449 355.188 274.625C355.463 272.851 355.739 271.077 356.023 269.25C356.346 267.518 356.668 265.785 357 264C357.545 261.618 357.545 261.618 358.102 259.188C358.501 257.682 358.901 256.176 359.312 254.625C359.744 253.168 360.176 251.712 360.621 250.211C361.076 248.821 361.531 247.432 362 246C362.949 243.443 363.897 240.885 364.875 238.25C365.906 235.858 366.938 233.465 368 231C369.258 228.401 370.516 225.803 371.812 223.125C372.864 221.104 373.916 219.082 375 217C375.33 216.67 375.66 216.34 376 216Z" fill="#E49A34"/>
<path d="M581 199C583.248 198.897 585.496 198.794 587.812 198.688C590.184 198.791 592.556 198.894 595 199C597.64 200.32 600.28 201.64 603 203C604.98 205.97 604.98 205.97 607 209C607.33 210.65 607.66 212.3 608 214C608.083 215.547 608.165 217.094 608.25 218.688C608.167 220.441 608.085 222.194 608 224C607.649 225.567 607.299 227.135 606.938 228.75C606.298 230.482 605.659 232.215 605 234C603.969 236.289 602.938 238.579 601.875 240.938C600.596 243.268 599.317 245.599 598 248C595.834 250.97 595.834 250.97 593.625 254C591.336 256.475 591.336 256.475 589 259C587.556 260.134 586.112 261.269 584.625 262.438C582.336 263.706 582.336 263.706 580 265C578.35 265.763 576.7 266.526 575 267.312C573.02 267.869 571.04 268.426 569 269C566.112 269.186 563.225 269.371 560.25 269.562C556.166 269.779 556.166 269.779 552 270C549.69 270.99 547.38 271.98 545 273C543.433 274.299 541.865 275.599 540.25 276.938C537.651 279.443 537.651 279.443 535 282C533.123 284.001 531.246 286.001 529.312 288.062C527.559 290.022 525.806 291.981 524 294C522.804 295.361 521.607 296.722 520.375 298.125C519.261 299.404 518.148 300.683 517 302C515.556 303.609 514.112 305.217 512.625 306.875C511.099 308.566 509.572 310.258 508 312C506.515 313.629 505.03 315.259 503.5 316.938C502.015 318.608 500.53 320.279 499 322C496.773 324.723 496.773 324.723 494.5 327.5C492.273 330.223 492.273 330.223 490 333C488.515 334.65 487.03 336.3 485.5 338C484.015 339.65 482.53 341.3 481 343C479.577 344.753 478.154 346.506 476.688 348.312C475.141 350.189 473.594 352.066 472 354C471.014 355.091 470.028 356.181 469.012 357.305C467.459 358.979 467.459 358.979 465.875 360.688C462.967 363.812 462.967 363.812 460 367C458.701 368.464 457.401 369.929 456.062 371.438C454.547 373.201 454.547 373.201 453 375C451.35 376.98 449.7 378.96 448 381C446.02 382.65 444.04 384.3 442 386C439.525 386.99 439.525 386.99 437 388C434.36 387.67 431.72 387.34 429 387C427.68 385.68 426.36 384.36 425 383C424.67 382.34 424.34 381.68 424 381C423.917 379.721 423.835 378.442 423.75 377.125C424.369 374.588 424.369 374.588 425 372C426.423 370.247 427.846 368.494 429.312 366.688C430.295 365.687 431.277 364.687 432.289 363.656C433.514 362.45 434.738 361.243 436 360C437.616 358.36 439.233 356.721 440.898 355.031C442.644 353.268 444.389 351.504 446.188 349.688C447.852 348.021 449.516 346.354 451.23 344.637C452.804 343.107 454.378 341.576 456 340C457.44 338.728 458.88 337.455 460.363 336.145C461.563 335.107 462.764 334.069 464 333C465.98 331.02 465.98 331.02 468 329C469.32 327.68 470.64 326.36 472 325C473.247 323.908 474.493 322.816 475.777 321.691C477.171 320.473 478.564 319.255 480 318C481.239 316.854 482.478 315.708 483.754 314.527C485.011 313.343 486.268 312.158 487.562 310.938C488.964 309.617 490.365 308.298 491.809 306.938C493.883 304.988 493.883 304.988 496 303C497.781 301.36 497.781 301.36 499.598 299.688C501.344 298.079 501.344 298.079 503.125 296.438C504.33 295.311 505.536 294.184 506.777 293.023C508.171 291.696 509.564 290.368 511 289C512.878 287.177 514.756 285.355 516.691 283.477C518.67 281.525 520.649 279.573 522.688 277.562C524.548 275.728 526.408 273.894 528.324 272.004C529.867 270.353 531.41 268.701 533 267C534.32 264.69 535.64 262.38 537 260C537.155 258.458 537.309 256.917 537.469 255.328C537.479 253.652 537.489 251.977 537.5 250.25C537.555 248.489 537.611 246.728 537.668 244.914C537.778 243.292 537.887 241.671 538 240C538.598 237.896 539.196 235.793 539.812 233.625C540.895 231.336 540.895 231.336 542 229C543.32 227.02 544.64 225.04 546 223C548.011 220.587 548.011 220.587 550.062 218.125C551.692 216.434 553.321 214.742 555 213C557.692 210.865 557.692 210.865 560.438 208.688C562.273 207.471 564.109 206.254 566 205C568.661 203.546 568.661 203.546 571.375 202.062C573.664 201.042 573.664 201.042 576 200C577.65 199.67 579.3 199.34 581 199Z" fill="#542C18"/>
<path d="M433 192C434.32 192.33 435.64 192.66 437 193C439.227 194.836 441.455 196.671 443.75 198.562C444.995 199.65 446.24 200.738 447.523 201.859C448.671 202.896 449.818 203.932 451 205C452.444 206.423 453.888 207.846 455.375 209.312C456.571 210.529 457.768 211.746 459 213C460.176 214.031 461.351 215.062 462.562 216.125C464.027 217.404 465.491 218.683 467 220C468.209 221.067 469.418 222.135 470.664 223.234C471.992 224.436 473.32 225.637 474.688 226.875C475.983 228.102 477.279 229.329 478.613 230.594C479.731 231.718 480.849 232.842 482 234C483.114 235.444 484.227 236.888 485.375 238.375C485.911 239.901 486.447 241.428 487 243C487.186 245.64 487.371 248.28 487.562 251C487.779 254.96 487.779 254.96 488 259C488.474 260.609 488.949 262.217 489.438 263.875C490.706 265.917 490.706 265.917 492 268C493.629 269.712 495.259 271.424 496.938 273.188C498.608 274.776 500.279 276.364 502 278C503.65 279.98 505.3 281.96 507 284C506.01 285.98 506.01 285.98 505 288C503.02 289.65 501.04 291.3 499 293C497.9 292.136 496.801 291.273 495.668 290.383C494.519 288.978 493.371 287.573 492.188 286.125C490.951 284.712 489.715 283.299 488.441 281.844C487.306 280.575 486.17 279.307 485 278C483.556 276.886 482.112 275.773 480.625 274.625C479.099 274.089 477.572 273.553 476 273C473.319 272.794 470.638 272.588 467.875 272.375C465.276 272.251 462.678 272.127 460 272C457.69 271.01 455.38 270.02 453 269C451.742 268.01 450.484 267.02 449.188 266C447.806 264.68 446.424 263.36 445 262C443.371 260.268 441.741 258.535 440.062 256.75C438.392 254.852 436.721 252.955 435 251C433.494 249.185 431.989 247.37 430.438 245.5C428.973 243.685 427.509 241.87 426 240C423.711 237.216 423.711 237.216 421.375 234.375C419.931 232.601 418.487 230.827 417 229C415.68 227.371 414.36 225.741 413 224.062C412.01 222.722 411.02 221.381 410 220C409.67 218.68 409.34 217.36 409 216C409.99 215.67 410.98 215.34 412 215C413.196 215.928 414.393 216.856 415.625 217.812C417.791 219.885 417.791 219.885 420 222C421.361 223.519 422.722 225.037 424.125 226.602C425.734 228.383 427.342 230.165 429 232C430.699 233.754 432.398 235.509 434.148 237.316C435.873 239.048 437.598 240.779 439.375 242.562C441.115 244.317 442.855 246.071 444.648 247.879C446.084 249.239 447.52 250.599 449 252C449.99 252.33 450.98 252.66 452 253C451.34 251.35 450.68 249.7 450 248C448.206 245.927 448.206 245.927 446.375 243.812C445.261 242.554 444.148 241.296 443 240C443 239.34 443 238.68 443 238C442.34 238 441.68 238 441 238C440.072 236.969 439.144 235.938 438.188 234.875C436.806 233.266 435.424 231.658 434 230C432.94 228.854 431.881 227.708 430.789 226.527C429.642 225.301 428.495 224.076 427.312 222.812C426.216 221.643 425.119 220.474 423.988 219.27C423.002 218.191 422.016 217.112 421 216C419.68 214.35 418.36 212.7 417 211C417.33 209.68 417.66 208.36 418 207C419.32 207.66 420.64 208.32 422 209C423.194 210.13 424.389 211.26 425.619 212.424C427.046 213.874 428.472 215.323 429.941 216.816C431.494 218.385 433.047 219.953 434.646 221.568C436.269 223.216 437.891 224.864 439.562 226.562C442.002 229.04 442.002 229.04 444.49 231.568C446.042 233.135 447.593 234.702 449.191 236.316C451.329 238.489 451.329 238.489 453.51 240.705C455.238 242.336 455.238 242.336 457 244C457.99 244.33 458.98 244.66 460 245C459.01 243.02 458.02 241.04 457 239C455.461 237.225 455.461 237.225 453.891 235.414C452.689 234.164 451.488 232.913 450.25 231.625C448.996 230.308 447.741 228.99 446.449 227.633C444.742 225.835 444.742 225.835 443 224C441.701 222.515 440.401 221.03 439.062 219.5C437.547 217.768 437.547 217.768 436 216C434.804 214.804 433.607 213.607 432.375 212.375C431.261 211.261 430.148 210.148 429 209C427.35 207.02 425.7 205.04 424 203C424 202.01 424 201.02 424 200C426.475 200.495 426.475 200.495 429 201C430.753 202.691 432.506 204.383 434.312 206.125C437.128 209.033 437.128 209.033 440 212C441.237 213.072 442.475 214.145 443.75 215.25C445.153 216.487 446.555 217.725 448 219C449.205 220.218 450.411 221.436 451.652 222.691C452.984 224.051 454.316 225.411 455.688 226.812C456.949 228.118 458.211 229.424 459.512 230.77C460.663 231.836 461.814 232.902 463 234C464.65 234.66 466.3 235.32 468 236C467.01 234.35 466.02 232.7 465 231C463.384 229.196 463.384 229.196 461.734 227.355C460.42 225.98 459.105 224.605 457.75 223.188C455.619 220.943 455.619 220.943 453.445 218.652C451.978 217.117 450.511 215.582 449 214C446.861 211.774 446.861 211.774 444.68 209.504C443.342 208.1 442.004 206.696 440.625 205.25C439.4 203.976 438.176 202.703 436.914 201.391C435.952 200.272 434.991 199.153 434 198C433.34 196.35 432.68 194.7 432 193C432.33 192.67 432.66 192.34 433 192Z" fill="#562D19"/>
<path d="M503 96C503.66 96 504.32 96 505 96C505.588 98.1037 505.588 98.1037 506.188 100.25C506.786 102.148 507.384 104.045 508 106C509.093 108.042 510.186 110.084 511.312 112.188C512.529 114.106 513.746 116.024 515 118C515.908 119.217 516.815 120.434 517.75 121.688C518.822 122.781 519.895 123.874 521 125C523.599 127.166 523.599 127.166 526.25 129.375C528.148 130.901 530.045 132.428 532 134C533.774 135.567 535.548 137.135 537.375 138.75C538.901 140.153 540.428 141.555 542 143C543.65 144.65 545.3 146.3 547 148C548.196 149.547 549.393 151.094 550.625 152.688C551.739 154.441 552.852 156.194 554 158C554.639 159.794 555.279 161.589 555.938 163.438C556.288 164.943 556.639 166.449 557 168C557 168.99 557 169.98 557 171C555.453 170.732 553.906 170.464 552.312 170.188C550.229 169.796 548.146 169.404 546 169C543.896 168.484 541.793 167.969 539.625 167.438C537.439 166.963 535.253 166.489 533 166C530.669 166.103 528.339 166.206 525.938 166.312C523.978 165.879 522.019 165.446 520 165C519.092 162.443 518.185 159.885 517.25 157.25C516.838 154.527 516.425 151.805 516 149C515.67 147.35 515.34 145.7 515 144C513.68 144 512.36 144 511 144C509.948 146.166 509.948 146.166 508.875 148.375C508.256 150.231 507.637 152.087 507 154C506.866 155.716 506.732 157.431 506.594 159.199C506.068 160.783 505.542 162.368 505 164C503.342 164.576 501.685 165.152 499.977 165.746C497.881 165.974 495.785 166.202 493.625 166.438C491.462 166.709 489.299 166.981 487.07 167.262C485.067 167.505 483.064 167.749 481 168C478.525 168.577 476.05 169.155 473.5 169.75C472.015 170.162 470.53 170.575 469 171C469 170.34 469 169.68 469 169C470.65 167.35 472.3 165.7 474 164C474.99 162.969 475.98 161.938 477 160.875C477.99 159.596 478.98 158.317 480 157C480.866 155.515 481.733 154.03 482.625 152.5C483.409 150.355 484.192 148.21 485 146C485.338 144.229 485.675 142.458 486.023 140.633C486.346 138.65 486.668 136.668 487 134.625C487.322 132.623 487.645 130.621 487.977 128.559C488.314 126.724 488.652 124.89 489 123C489.784 120.587 490.567 118.174 491.375 115.688C492.674 112.872 492.674 112.872 494 110C495.547 107.247 495.547 107.247 497.125 104.438C498.074 102.973 499.022 101.509 500 100C500.99 98.68 501.98 97.36 503 96Z" fill="#E69A33"/>
<path d="M524 301C525.32 301.66 526.64 302.32 528 303C529.898 304.877 531.795 306.754 533.75 308.688C535.812 310.771 537.875 312.854 540 315C541.258 316.114 542.516 317.227 543.812 318.375C545.194 319.571 546.576 320.768 548 322C549.239 323.155 550.478 324.31 551.754 325.5C553.114 326.779 554.474 328.058 555.875 329.375C557.82 331.212 557.82 331.212 559.805 333.086C560.859 334.048 561.914 335.009 563 336C563.99 336.495 563.99 336.495 565 337C565 337.66 565 338.32 565 339C566.32 339.66 567.64 340.32 569 341C570.044 341.991 571.088 342.983 572.164 344.004C573.306 345.178 574.448 346.353 575.625 347.562C577.346 349.328 577.346 349.328 579.102 351.129C580.058 352.076 581.015 353.024 582 354C582.66 354.33 583.32 354.66 584 355C584 355.66 584 356.32 584 357C585.32 357.66 586.64 358.32 588 359C589.506 360.567 591.011 362.135 592.562 363.75C594.027 365.482 595.491 367.215 597 369C597.99 370.98 598.98 372.96 600 375C600 377.31 600 379.62 600 382C598.68 383.65 597.36 385.3 596 387C595.01 387.495 595.01 387.495 594 388C591.69 388 589.38 388 587 388C585.02 387.01 583.04 386.02 581 385C579.298 383.67 579.298 383.67 577.562 382.312C576.387 381.219 575.211 380.126 574 379C572.948 377.845 571.896 376.69 570.812 375.5C569.554 374.015 568.296 372.53 567 371C564.216 367.752 564.216 367.752 561.375 364.438C560.345 363.235 559.315 362.032 558.254 360.793C557.18 359.541 556.106 358.29 555 357C553.895 355.717 552.791 354.435 551.652 353.113C550.55 351.838 549.448 350.564 548.312 349.25C547.231 348.002 546.149 346.754 545.035 345.469C544.034 344.324 543.032 343.179 542 342C540.433 340.268 538.865 338.535 537.25 336.75C535.847 335.183 534.445 333.615 533 332C531.494 330.164 529.989 328.329 528.438 326.438C526.973 324.643 525.509 322.849 524 321C522.453 319.371 520.906 317.741 519.312 316.062C518.219 314.722 517.126 313.381 516 312C516.66 310.68 517.32 309.36 518 308C518.949 306.721 519.897 305.442 520.875 304.125C521.906 303.094 522.938 302.062 524 301Z" fill="#592E19"/>
<path d="M570 273C571.32 273.33 572.64 273.66 574 274C575.114 276.289 575.114 276.289 576.25 278.625C576.827 281.059 577.405 283.493 578 286C578.129 287.789 578.258 289.578 578.391 291.422C578.445 294.369 578.445 294.369 578.5 297.375C578.463 299.365 578.425 301.356 578.387 303.406C578.195 306.175 578.195 306.175 578 309C577.443 311.599 576.886 314.197 576.312 316.875C575.549 318.896 574.786 320.918 574 323C573.154 324.774 572.309 326.548 571.438 328.375C570.231 330.169 570.231 330.169 569 332C568.01 332 567.02 332 566 332C564.886 331.092 563.773 330.185 562.625 329.25C561.099 327.847 559.572 326.445 558 325C555.896 323.061 553.793 321.122 551.625 319.125C550.513 318.094 549.4 317.062 548.254 316C547.18 315.01 546.106 314.02 545 313C543.206 311.391 541.411 309.783 539.562 308.125C538.057 306.764 536.551 305.403 535 304C533.02 302.02 531.04 300.04 529 298C529.33 296.68 529.66 295.36 530 294C531.201 292.667 532.403 291.334 533.641 289.961C535.162 288.448 536.683 286.934 538.25 285.375C539.761 283.856 541.272 282.338 542.828 280.773C544.205 279.528 545.582 278.283 547 277C548.65 276.34 550.3 275.68 552 275C554.702 274.814 557.404 274.629 560.188 274.438C564.055 274.221 564.055 274.221 568 274C568.66 273.67 569.32 273.34 570 273Z" fill="#E19B32"/>
<path d="M511 316C512.32 316.66 513.64 317.32 515 318C515.986 318.982 516.972 319.965 517.988 320.977C519.634 322.783 519.634 322.783 521.312 324.625C523.051 326.53 523.051 326.53 524.824 328.473C525.872 329.637 526.92 330.801 528 332C529.196 333.341 530.393 334.681 531.625 336.062C532.739 337.362 533.852 338.661 535 340C535.98 341.078 536.959 342.155 537.969 343.266C539.01 344.436 540.052 345.607 541.125 346.812C542.734 348.854 544.342 350.896 546 353C545.01 353.99 544.02 354.98 543 356C540.999 357.011 538.999 358.021 536.938 359.062C533.503 360.517 533.503 360.517 530 362C528.412 362.454 526.824 362.907 525.188 363.375C523.476 363.581 521.764 363.787 520 364C517.484 364.124 514.967 364.248 512.375 364.375C509.611 364.251 506.848 364.127 504 364C501.216 363.443 498.431 362.886 495.562 362.312C493.067 361.549 490.571 360.786 488 360C485.216 358.793 485.216 358.793 482.375 357.562C481.261 356.717 480.148 355.871 479 355C479.66 353.35 480.32 351.7 481 350C482.815 347.814 484.63 345.628 486.5 343.375C487.576 342.143 488.653 340.91 489.762 339.641C490.83 338.439 491.899 337.238 493 336C494.753 334.061 496.506 332.122 498.312 330.125C499.859 328.434 501.406 326.742 503 325C504.341 323.474 505.681 321.947 507.062 320.375C508.032 319.261 509.001 318.148 510 317C510.33 316.67 510.66 316.34 511 316Z" fill="#E09A32"/>
<path d="M451 274C453.31 274.66 455.62 275.32 458 276C460.64 276.124 463.28 276.248 466 276.375C468.64 276.581 471.28 276.787 474 277C476.31 278.32 478.62 279.64 481 281C482.152 282.021 483.305 283.042 484.492 284.094C485.609 285.218 486.725 286.342 487.875 287.5C489.896 289.645 491.918 291.79 494 294C494.495 295.98 494.495 295.98 495 298C493.02 298.99 493.02 298.99 491 300C490.505 301.485 490.505 301.485 490 303C489.34 303 488.68 303 488 303C488 303.66 488 304.32 488 305C486.989 305.908 485.979 306.815 484.938 307.75C483.308 309.153 481.679 310.555 480 312C478.804 313.11 477.607 314.22 476.375 315.363C474.426 317.194 474.426 317.194 472.438 319.062C470.579 320.812 470.579 320.812 468.684 322.598C467.468 323.72 466.252 324.843 465 326C463.753 327.154 462.507 328.307 461.223 329.496C460.159 330.322 459.096 331.149 458 332C457.01 331.67 456.02 331.34 455 331C453.763 328.834 453.763 328.834 452.5 326.625C451.675 324.769 450.85 322.913 450 321C449.462 319.315 448.925 317.63 448.371 315.895C447.919 313.949 447.466 312.004 447 310C446.857 308.052 446.714 306.104 446.566 304.098C446.565 302.106 446.564 300.114 446.562 298.062C446.593 295.983 446.624 293.904 446.656 291.762C446.77 289.86 446.883 287.959 447 286C447.516 283.484 448.031 280.967 448.562 278.375C449.367 276.931 450.171 275.487 451 274Z" fill="#E09B33"/>
<path d="M501 229C502.507 228.881 504.014 228.763 505.566 228.641C507.174 228.615 508.781 228.589 510.438 228.562C512.054 228.596 513.67 228.63 515.336 228.664C517.645 228.83 517.645 228.83 520 229C522.496 229.474 524.991 229.949 527.562 230.438C530.254 231.211 530.254 231.211 533 232C533.66 232.33 534.32 232.66 535 233C534.67 234.98 534.34 236.96 534 239C533.897 241.929 533.794 244.858 533.688 247.875C533.65 249.399 533.613 250.922 533.574 252.492C533.29 254.724 533.29 254.724 533 257C531.68 259.64 530.36 262.28 529 265C527.751 266.413 526.502 267.826 525.215 269.281C523.098 271.37 523.098 271.37 520.938 273.5C519.523 274.913 518.109 276.326 516.652 277.781C515.447 278.843 514.242 279.906 513 281C512.01 281 511.02 281 510 281C508.928 279.824 507.855 278.649 506.75 277.438C505.513 275.973 504.275 274.509 503 273C501.783 271.824 500.566 270.649 499.312 269.438C498.219 268.303 497.126 267.169 496 266C494.68 263.69 493.36 261.38 492 259C491.834 257.533 491.667 256.066 491.496 254.555C491.477 253.01 491.457 251.466 491.438 249.875C491.293 246.946 491.149 244.017 491 241C490.01 239.35 489.02 237.7 488 236C488.33 235.01 488.66 234.02 489 233C491.413 231.917 491.413 231.917 493.875 230.812C496.226 230.214 498.578 229.616 501 229Z" fill="#E19A33"/>
<path d="M376 216C376.66 216.33 377.32 216.66 378 217C378.351 218.423 378.701 219.846 379.062 221.312C379.527 223.633 379.527 223.633 380 226C380.33 227.32 380.66 228.64 381 230C381.66 230 382.32 230 383 230C383.99 230.99 384.98 231.98 386 233C388.475 233.99 388.475 233.99 391 235C389.928 237.702 388.855 240.404 387.75 243.188C386.596 245.728 386.596 245.728 385.418 248.32C384.62 250.195 383.822 252.069 383 254C382.316 256.081 381.631 258.161 380.926 260.305C380.311 262.37 379.696 264.435 379.062 266.562C378.497 268.503 377.931 270.443 377.348 272.441C376.903 273.946 376.458 275.45 376 277C375.67 277.66 375.34 278.32 375 279C375 280.609 375 282.217 375 283.875C374.67 285.566 374.34 287.258 374 289C372.051 290.237 372.051 290.237 370.062 291.5C368.392 291.995 366.721 292.49 365 293C363.164 293.289 361.329 293.577 359.438 293.875C357.973 294.246 356.509 294.618 355 295C355 296.98 355 298.96 355 301C354.67 301 354.34 301 354 301C353.917 298.793 353.835 296.586 353.75 294.312C353.762 292.852 353.773 291.391 353.785 289.887C353.856 288.274 353.927 286.661 354 285C354.164 283.315 354.327 281.63 354.496 279.895C354.724 278.156 354.952 276.417 355.188 274.625C355.463 272.851 355.739 271.077 356.023 269.25C356.346 267.518 356.668 265.785 357 264C357.545 261.618 357.545 261.618 358.102 259.188C358.501 257.682 358.901 256.176 359.312 254.625C359.744 253.168 360.176 251.712 360.621 250.211C361.076 248.821 361.531 247.432 362 246C362.949 243.443 363.897 240.885 364.875 238.25C365.906 235.858 366.938 233.465 368 231C369.258 228.401 370.516 225.803 371.812 223.125C372.864 221.104 373.916 219.082 375 217C375.33 216.67 375.66 216.34 376 216Z" fill="#E69933"/>
<path d="M441 267C442.32 267.66 443.64 268.32 445 269C445.495 270.485 445.495 270.485 446 272C445.381 273.774 444.762 275.548 444.125 277.375C443.424 279.231 442.723 281.087 442 283C441.505 285.475 441.505 285.475 441 288C440.921 289.442 440.843 290.885 440.762 292.371C440.725 294.879 440.725 294.879 440.688 297.438C440.707 300.116 440.707 300.116 440.727 302.848C440.817 304.548 440.907 306.248 441 308C441.773 311.651 441.773 311.651 442.562 315.375C443.367 317.561 444.171 319.747 445 322C446.279 324.516 447.558 327.033 448.875 329.625C449.906 331.729 450.938 333.832 452 336C451.01 337.98 451.01 337.98 450 340C449.01 340 448.02 340 447 340C445.866 338.288 444.731 336.576 443.562 334.812C441.799 331.44 441.799 331.44 440 328C439.196 325.669 438.391 323.339 437.562 320.938C436.789 317.998 436.789 317.998 436 315C436 314.01 436 313.02 436 312C433.494 311.722 433.494 311.722 430.938 311.438C428.978 311.293 427.019 311.149 425 311C422.69 310.34 420.38 309.68 418 309C416.358 308.693 414.715 308.386 413.023 308.07C411.159 307.758 409.295 307.446 407.375 307.125C404.341 306.609 404.341 306.609 401.246 306.082C399.185 305.725 397.124 305.368 395 305C393.032 304.633 391.063 304.265 389.035 303.887C387.188 303.532 385.341 303.178 383.438 302.812C381.766 302.489 380.094 302.165 378.371 301.832C376.929 301.557 375.486 301.283 374 301C372.02 300.67 370.04 300.34 368 300C368 299.34 368 298.68 368 298C369.321 297.621 370.643 297.242 372.004 296.852C374.755 296.244 374.755 296.244 377.562 295.625C379.571 295.185 381.579 294.746 383.648 294.293C385.744 293.866 387.84 293.44 390 293C391.952 292.646 393.903 292.291 395.914 291.926C397.819 291.6 399.725 291.274 401.688 290.938C403.573 290.622 405.459 290.306 407.402 289.98C409.25 289.657 411.097 289.333 413 289C415.755 288.437 415.755 288.437 418.566 287.863C420.277 287.496 421.988 287.129 423.75 286.75C426.473 286.173 429.195 285.595 432 285C432.99 285 433.98 285 435 285C435.33 283.02 435.66 281.04 436 279C437.145 275.783 437.145 275.783 438.312 272.5C439.643 269.777 439.643 269.777 441 267Z" fill="#582C15"/>
<path d="M582 269C582.99 269.33 583.98 269.66 585 270C585.722 271.753 586.444 273.506 587.188 275.312C587.786 277.189 588.384 279.066 589 281C589 282.32 589 283.64 589 285C591.021 285.309 593.043 285.619 595.125 285.938C599.518 286.463 599.518 286.463 604 287C605.644 287.348 607.287 287.696 608.98 288.055C610.74 288.47 612.5 288.885 614.312 289.312C616.162 289.747 618.012 290.181 619.918 290.629C622.929 291.308 622.929 291.308 626 292C628.327 292.463 630.654 292.926 633.051 293.402C635.385 293.847 637.72 294.292 640.125 294.75C642.293 295.157 644.461 295.565 646.695 295.984C649.321 296.487 649.321 296.487 652 297C653.98 297.495 653.98 297.495 656 298C656 298.66 656 299.32 656 300C654.468 300.367 652.936 300.735 651.357 301.113C649.226 301.509 647.094 301.905 644.898 302.312C642.57 302.748 640.242 303.184 637.844 303.633C635.379 304.084 632.914 304.535 630.375 305C627.964 305.451 625.554 305.902 623.07 306.367C620.724 306.803 618.378 307.239 615.961 307.688C613.703 308.103 611.444 308.519 609.118 308.947C606.089 309.468 606.089 309.468 603 310C600.159 310.34 597.318 310.681 594.391 311.031C592.612 311.351 590.833 311.671 589 312C588.196 314.227 588.196 314.227 587.375 316.5C587.251 318.315 587.127 320.13 587 322C586.134 324.506 586.134 324.506 585.25 327.062C584.507 328.692 583.765 330.321 583 332C581.515 334.63 581.515 334.63 580 337.312C579.01 338.529 578.02 339.746 577 341C575.68 340.01 574.36 339.02 573 338C573.66 336.35 574.32 334.7 575 333C575.825 331.371 576.65 329.741 577.5 328.062C578.325 326.392 579.15 324.721 580 323C580.66 321.02 581.32 319.04 582 317C582.371 315.391 582.743 313.783 583.125 312.125C583.414 310.104 583.702 308.082 584 306C584.083 303.339 584.165 300.679 584.25 297.938C584.167 295.318 584.085 292.699 584 290C583.711 288.144 583.423 286.288 583.125 284.375C582.754 282.931 582.382 281.487 582 280C581.34 278.02 580.68 276.04 580 274C580 272.68 580 271.36 580 270C580.66 269.67 581.32 269.34 582 269Z" fill="#572913"/>
<path d="M474 359C476.475 359.99 476.475 359.99 479 361C480.65 361.99 482.3 362.98 484 364C486.516 364.887 489.033 365.774 491.625 366.688C493.878 367.329 493.878 367.329 496.176 367.984C497.768 368.32 499.36 368.655 501 369C502.623 369.129 504.246 369.258 505.918 369.391C508.341 369.414 508.341 369.414 510.812 369.438C512.398 369.389 513.984 369.34 515.617 369.289C517.787 369.146 517.787 369.146 520 369C523.187 368.66 523.187 368.66 526.438 368.312C529.191 367.663 529.191 367.663 532 367C534.124 366.196 536.249 365.391 538.438 364.562C540.273 363.717 542.109 362.871 544 362C545.65 361.01 547.3 360.02 549 359C550.32 359.66 551.64 360.32 553 361C553.495 361.99 553.495 361.99 554 363C552.701 363.908 551.401 364.815 550.062 365.75C547.062 367.359 547.062 367.359 544 369C541.941 369.855 541.941 369.855 539.84 370.727C538.408 371.271 536.976 371.815 535.5 372.375C533.025 373.241 530.55 374.108 528 375C527.34 375 526.68 375 526 375C525.397 377.667 524.793 380.334 524.172 383.082C523.824 384.818 523.477 386.554 523.119 388.342C522.75 390.209 522.381 392.076 522 394C521.615 395.848 521.23 397.695 520.834 399.599C520.44 401.468 520.046 403.336 519.641 405.262C519.247 407.141 518.854 409.019 518.449 410.955C518.053 412.847 517.658 414.738 517.25 416.688C516.839 418.653 516.428 420.618 516.004 422.643C515.616 424.497 515.228 426.351 514.828 428.262C514.225 431.145 513.622 434.029 513 437C512.01 436.505 512.01 436.505 511 436C510.56 433.985 510.121 431.97 509.668 429.895C508.935 425.894 508.935 425.894 508.188 421.812C507.662 419.004 507.136 416.195 506.594 413.301C506.068 410.562 505.542 407.822 505 405C504.515 402.787 504.031 400.573 503.531 398.293C503.088 396.381 502.644 394.47 502.188 392.5C501.789 390.819 501.391 389.138 500.98 387.406C500.657 385.952 500.333 384.498 500 383C499.67 380.69 499.34 378.38 499 376C496.36 375.01 493.72 374.02 491 373C489.206 372.402 487.411 371.804 485.562 371.188C482.809 370.105 482.809 370.105 480 369C478.226 368.01 476.452 367.02 474.625 366C473.429 365.01 472.232 364.02 471 363C471.99 361.68 472.98 360.36 474 359Z" fill="#BA6532"/>
<path d="M512 153C512.66 154.32 513.32 155.64 514 157C514.332 158.465 514.664 159.93 515.006 161.439C515.353 163.249 515.701 165.06 516.059 166.926C516.445 168.921 516.831 170.915 517.229 172.971C517.627 175.063 518.026 177.156 518.438 179.312C518.833 181.363 519.228 183.413 519.635 185.525C520.022 187.534 520.409 189.543 520.809 191.613C521.382 194.539 521.382 194.539 521.967 197.524C522.478 200.235 522.478 200.235 523 203C523.45 205.909 523.9 208.819 524.363 211.816C524.903 213.857 525.444 215.898 526 218C528.227 218.866 530.455 219.733 532.75 220.625C534.812 221.079 536.875 221.532 539 222C538.67 223.65 538.34 225.3 538 227C535.03 226.505 535.03 226.505 532 226C530.599 225.658 529.198 225.317 527.754 224.965C526.185 224.646 524.616 224.328 523 224C521.38 223.878 519.759 223.755 518.09 223.629C516.39 223.607 514.689 223.585 512.938 223.562C511.112 223.573 509.287 223.583 507.406 223.594C504.73 223.795 504.73 223.795 502 224C500.422 224.382 498.844 224.763 497.219 225.156C495.1 225.852 495.1 225.852 492.938 226.562C490.648 227.367 488.359 228.171 486 229C484.68 228.67 483.36 228.34 482 228C481.34 226.68 480.68 225.36 480 224C482.227 223.196 484.455 222.391 486.75 221.562C489.142 220.717 491.535 219.871 494 219C495.98 218.505 495.98 218.505 498 218C498.66 215.814 499.32 213.628 500 211.375C500.331 209.918 500.663 208.462 501.004 206.961C501.333 205.324 501.661 203.687 502 202C502.318 200.239 502.637 198.478 502.965 196.664C503.286 194.795 503.607 192.926 503.938 191C504.262 189.068 504.587 187.135 504.922 185.145C505.278 183.117 505.633 181.089 506 179C506.438 176.776 506.877 174.553 507.328 172.262C507.777 170.092 508.225 167.923 508.688 165.688C509.104 163.691 509.52 161.694 509.949 159.637C510.296 158.107 510.643 156.576 511 155C511.33 154.34 511.66 153.68 512 153Z" fill="#BA6430"/>
<path d="M439 155C439.33 155 439.66 155 440 155C440.124 156.691 440.248 158.383 440.375 160.125C440.581 162.064 440.787 164.003 441 166C441.99 167.98 442.98 169.96 444 172C445.32 173.32 446.64 174.64 448 176C449.65 176.33 451.3 176.66 453 177C451.68 177.99 450.36 178.98 449 180C447.309 180.908 445.617 181.815 443.875 182.75C441.936 183.822 439.997 184.895 438 186C436.433 187.011 434.865 188.021 433.25 189.062C431.518 190.362 429.785 191.661 428 193C426.716 194.089 425.432 195.179 424.109 196.301C422.753 197.48 421.397 198.66 420 199.875C418.721 201.007 417.442 202.139 416.125 203.305C415.094 204.194 414.062 205.084 413 206C412.01 206.495 412.01 206.495 411 207C411.155 205.144 411.155 205.144 411.312 203.25C411.539 201.518 411.766 199.785 412 198C412.371 196.123 412.743 194.246 413.125 192.312C413.744 190.229 414.363 188.146 415 186C416.031 183.649 417.062 181.297 418.125 178.875C419.404 176.606 420.683 174.338 422 172C424.197 169.308 424.197 169.308 426.438 166.562C427.943 165.057 429.449 163.551 431 162C432.485 160.639 433.97 159.278 435.5 157.875C437.232 156.452 437.232 156.452 439 155Z" fill="#E39A36"/>
<path d="M584 155C585.32 155.66 586.64 156.32 588 157C589.052 157.784 590.104 158.567 591.188 159.375C593.075 161.169 593.075 161.169 595 163C596.526 164.877 598.053 166.754 599.625 168.688C601.069 170.771 602.513 172.854 604 175C604.949 176.856 605.897 178.712 606.875 180.625C607.576 182.399 608.277 184.173 609 186C609.577 187.65 610.155 189.3 610.75 191C611.162 192.65 611.575 194.3 612 196C612.227 198.021 612.454 200.043 612.688 202.125C612.842 204.538 612.842 204.538 613 207C611.987 206.129 610.974 205.257 609.93 204.359C608.633 203.251 607.336 202.142 606 201C603.731 199.102 601.463 197.205 599.125 195.25C597.837 194.216 596.549 193.182 595.223 192.117C593.829 191.089 592.436 190.06 591 189C589.431 188.033 587.862 187.066 586.246 186.07C584.701 185.181 583.155 184.291 581.562 183.375C577.819 181.209 577.819 181.209 574 179C574 178.34 574 177.68 574 177C575.98 175.68 577.96 174.36 580 173C580.99 171.35 581.98 169.7 583 168C583.227 165.752 583.454 163.504 583.688 161.188C583.791 159.146 583.894 157.104 584 155Z" fill="#E39A37"/>
<path d="M441 267C442.32 267.66 443.64 268.32 445 269C445.495 270.485 445.495 270.485 446 272C445.402 273.547 444.804 275.094 444.188 276.688C443.466 278.771 442.744 280.854 442 283C441.954 285.732 441.908 288.464 441.86 291.279C441.246 293.827 440.632 296.375 440 299C437.744 299.64 435.488 300.28 433.164 300.94C430.158 300.911 427.152 300.882 424.055 300.852C420.813 300.854 417.571 300.857 414.23 300.859C410.813 300.782 407.396 300.705 403.875 300.625C400.45 300.617 397.025 300.61 393.496 300.602C390.257 300.581 387.017 300.56 383.68 300.539C380.676 300.49 377.672 300.44 374.578 300.389C372.407 300.261 370.236 300.132 368 300C368 299.34 368 298.68 368 298C369.321 297.621 370.643 297.242 372.004 296.852C374.755 296.244 374.755 296.244 377.562 295.625C379.571 295.185 381.579 294.746 383.648 294.293C385.744 293.866 387.84 293.44 390 293C391.952 292.646 393.903 292.291 395.914 291.926C397.819 291.6 399.725 291.274 401.688 290.938C403.573 290.622 405.459 290.306 407.402 289.98C409.25 289.657 411.097 289.333 413 289C415.755 288.437 415.755 288.437 418.566 287.863C420.277 287.496 421.988 287.129 423.75 286.75C426.473 286.173 429.195 285.595 432 285C432.99 285 433.98 285 435 285C435.33 283.02 435.66 281.04 436 279C437.145 275.783 437.145 275.783 438.312 272.5C439.643 269.777 439.643 269.777 441 267Z" fill="#B86834"/>
<path d="M582 269C582.99 269.33 583.98 269.66 585 270C585.722 271.753 586.444 273.506 587.188 275.312C587.786 277.189 588.384 279.066 589 281C589 282.32 589 283.64 589 285C591.021 285.309 593.043 285.619 595.125 285.938C599.518 286.463 599.518 286.463 604 287C605.644 287.348 607.287 287.696 608.98 288.055C611.62 288.677 611.62 288.677 614.312 289.312C616.162 289.747 618.012 290.181 619.918 290.629C622.929 291.308 622.929 291.308 626 292C628.327 292.463 630.654 292.926 633.051 293.402C635.385 293.847 637.72 294.292 640.125 294.75C642.293 295.157 644.461 295.565 646.695 295.984C649.321 296.487 649.321 296.487 652 297C653.98 297.495 653.98 297.495 656 298C656 298.66 656 299.32 656 300C652.79 300.193 652.79 300.193 649.514 300.389C645.071 300.463 645.071 300.463 640.539 300.539C635.748 300.57 635.748 300.57 630.859 300.602C625.793 300.613 625.793 300.613 620.625 300.625C617.255 300.702 613.886 300.78 610.414 300.859C607.217 300.857 604.02 300.854 600.727 300.852C596.281 300.895 596.281 300.895 591.745 300.94C589.519 300.3 587.293 299.66 585 299C584.379 296.43 583.758 293.86 583.119 291.212C583.079 288.502 583.04 285.792 583 283C582.196 280.401 582.196 280.401 581.375 277.75C580.921 276.513 580.468 275.275 580 274C580 272.68 580 271.36 580 270C580.66 269.67 581.32 269.34 582 269Z" fill="#B86331"/>
<path d="M549 359C550.32 359.66 551.64 360.32 553 361C553.495 361.99 553.495 361.99 554 363C552.701 363.908 551.401 364.815 550.062 365.75C547.062 367.359 547.062 367.359 544 369C542.627 369.57 541.254 370.14 539.84 370.727C538.408 371.271 536.976 371.815 535.5 372.375C533.025 373.241 530.55 374.108 528 375C527.34 375 526.68 375 526 375C525.464 377.372 524.928 379.744 524.375 382.188C524.036 383.879 523.697 385.57 523.348 387.312C522.903 389.519 522.458 391.726 522 394C521.687 395.495 521.373 396.991 521.05 398.531C520.702 400.171 520.355 401.811 519.996 403.5C519.638 405.173 519.28 406.846 518.911 408.57C518.548 410.258 518.186 411.947 517.812 413.688C517.455 415.376 517.098 417.064 516.73 418.803C516.224 421.165 516.224 421.165 515.707 423.574C515.144 426.025 514.58 428.475 514 431C513.67 431 513.34 431 513 431C512.889 429.198 512.778 427.396 512.664 425.54C512.58 423.045 512.497 420.551 512.41 417.98C512.35 415.287 512.29 412.593 512.229 409.818C512.174 406.97 512.119 404.122 512.062 401.188C511.95 398.351 511.837 395.514 511.721 392.592C511.68 389.894 511.639 387.197 511.598 384.418C511.531 381.92 511.464 379.422 511.395 376.848C511.924 374.918 512.454 372.988 513 371C515.198 370.267 517.397 369.534 519.662 368.779C522.083 368.522 524.505 368.265 527 368C530.372 367.072 530.372 367.072 533.812 366.125C535.854 365.424 537.896 364.723 540 364C542.506 362.577 542.506 362.577 545.062 361.125C546.362 360.424 547.661 359.723 549 359Z" fill="#5A2C16"/>
<path d="M512 153C512.66 154.32 513.32 155.64 514 157C514.332 158.465 514.664 159.93 515.006 161.439C515.353 163.249 515.701 165.06 516.059 166.926C516.445 168.921 516.831 170.915 517.229 172.971C517.627 175.063 518.026 177.156 518.438 179.312C518.833 181.363 519.228 183.413 519.635 185.525C520.216 188.539 520.216 188.539 520.809 191.613C521.191 193.564 521.573 195.515 521.967 197.524C522.308 199.331 522.649 201.138 523 203C523.45 205.909 523.9 208.819 524.363 211.816C524.903 213.857 525.444 215.898 526 218C528.227 218.866 530.455 219.733 532.75 220.625C534.812 221.079 536.875 221.532 539 222C538.67 223.65 538.34 225.3 538 227C536.02 226.67 534.04 226.34 532 226C530.455 225.952 528.909 225.903 527.317 225.854C525.639 225.706 523.96 225.558 522.23 225.406C520.549 225.047 518.867 224.687 517.134 224.316C515.77 223.552 514.406 222.788 513 222C512.459 220.483 511.919 218.966 511.362 217.402C511.218 215.486 511.074 213.569 510.926 211.594C510.942 209.486 510.958 207.379 510.975 205.207C511.086 202.994 511.198 200.78 511.312 198.5C511.351 196.349 511.389 194.197 511.428 191.98C511.468 189.852 511.509 187.724 511.551 185.531C511.629 183.435 511.707 181.339 511.788 179.18C511.858 177.14 511.928 175.101 512 173C512.017 171.002 512.034 169.004 512.052 166.945C512.049 165.117 512.046 163.29 512.043 161.406C512.029 158.632 512.015 155.858 512 153Z" fill="#592E16"/>
<path d="M430 323C430.99 323 431.98 323 433 323C433.722 324.403 434.444 325.805 435.188 327.25C435.786 328.817 436.384 330.385 437 332C437 333.32 437 334.64 437 336C435.453 336.588 433.906 337.176 432.312 337.781C430.229 338.348 428.146 338.916 426 339.5C423.82 340.098 421.64 340.696 419.395 341.312C417.284 341.869 415.174 342.426 413 343C410.5 343.681 410.5 343.681 407.949 344.375C406.543 344.746 405.136 345.118 403.688 345.5C401.481 345.995 399.274 346.49 397 347C396.01 346.67 395.02 346.34 394 346C397.62 343.649 397.62 343.649 401.312 341.25C402.848 340.259 404.383 339.267 405.965 338.246C407.626 337.175 409.288 336.104 411 335C412.734 333.877 414.468 332.754 416.254 331.598C418.789 329.972 418.789 329.972 421.375 328.312C422.95 327.298 424.525 326.284 426.148 325.238C427.419 324.5 428.69 323.761 430 323Z" fill="#DA9E3D"/>
<path d="M592 323C594.475 323.99 594.475 323.99 597 325C598.538 325.91 600.076 326.82 601.66 327.758C603.443 328.869 605.226 329.98 607.062 331.125C608.924 332.286 610.785 333.448 612.703 334.645C614.451 335.752 616.199 336.859 618 338C621.62 340.382 621.62 340.382 625.312 342.812C626.859 343.864 628.406 344.916 630 346C629.01 346.495 629.01 346.495 628 347C626.149 346.573 624.298 346.147 622.391 345.707C618.856 344.769 618.856 344.769 615.25 343.812C611.603 342.828 611.603 342.828 607.883 341.824C605.611 341.222 603.34 340.62 601 340C599.347 339.656 597.695 339.312 595.992 338.957C594.716 338.682 593.44 338.408 592.125 338.125C590.434 337.424 588.742 336.723 587 336C587.248 333.773 587.248 333.773 587.5 331.5C588.325 330.015 589.15 328.53 590 327C590.66 325.68 591.32 324.36 592 323Z" fill="#D79E43"/>
<path d="M393 253C395.33 253.402 395.33 253.402 397.707 253.812C400.822 254.4 400.822 254.4 404 255C407.1 255.712 407.1 255.712 410.262 256.438C413.442 257.211 413.442 257.211 416.688 258C418.816 258.516 420.944 259.031 423.137 259.562C425.072 260.037 427.006 260.511 429 261C431.64 261.66 434.28 262.32 437 263C436.567 265.166 436.567 265.166 436.125 267.375C435.073 269.664 435.073 269.664 434 272C433.34 273.32 432.68 274.64 432 276C430.02 275.34 428.04 274.68 426 274C424.288 272.928 422.576 271.855 420.812 270.75C418.894 269.513 416.976 268.275 415 267C413.185 266.01 411.37 265.02 409.5 264C407.685 263.01 405.87 262.02 404 261C401.958 259.742 399.916 258.484 397.812 257.188C396.224 256.136 394.636 255.084 393 254C393 253.67 393 253.34 393 253Z" fill="#D79F45"/>
<path d="M548 372C548.66 372 549.32 372 550 372C550.463 373.642 550.926 375.285 551.402 376.977C551.909 379.171 552.416 381.365 552.938 383.625C553.463 385.899 553.989 388.173 554.531 390.516C555.258 393.725 555.258 393.725 556 397C556.639 399.764 557.279 402.527 557.938 405.375C558.463 408.159 558.463 408.159 559 411C558.67 411.99 558.34 412.98 558 414C557.154 412.635 556.309 411.27 555.438 409.863C554.303 408.032 553.169 406.2 552 404.312C550.821 402.403 549.641 400.494 548.426 398.527C546.73 395.791 546.73 395.791 545 393C544.127 391.619 543.255 390.239 542.355 388.816C541.64 387.681 540.925 386.545 540.188 385.375C539.136 383.601 538.084 381.827 537 380C537 379.01 537 378.02 537 377C538.774 376.113 540.548 375.226 542.375 374.312C544.231 373.549 546.087 372.786 548 372Z" fill="#D89F44"/>
<path d="M475 373C476.65 373.33 478.3 373.66 480 374C482.64 374.99 485.28 375.98 488 377C487.67 378.65 487.34 380.3 487 382C485.965 383.516 484.93 385.032 483.863 386.594C482.588 388.378 481.314 390.162 480 392C478.859 393.887 477.718 395.774 476.543 397.719C475.436 399.627 474.328 401.534 473.188 403.5C472.067 405.428 470.947 407.357 469.793 409.344C468.871 410.88 467.95 412.417 467 414C466.34 414.66 465.68 415.32 465 416C465.33 413.36 465.66 410.72 466 408C466.624 405.204 467.248 402.408 467.891 399.527C468.271 397.97 468.651 396.412 469.043 394.807C469.441 393.2 469.84 391.593 470.25 389.938C470.633 388.296 471.016 386.654 471.41 384.963C471.988 382.644 471.988 382.644 472.578 380.277C473.377 377.876 474.177 375.474 475 373Z" fill="#D99C3D"/>
<path d="M466 178C466.99 178.99 467.98 179.98 469 181C470.448 183.245 470.448 183.245 471.926 185.535C473.043 187.359 474.161 189.183 475.312 191.062C476.422 192.868 477.532 194.674 478.676 196.535C479.773 198.339 480.87 200.142 482 202C483.149 203.793 484.297 205.586 485.48 207.434C486.312 208.941 487.143 210.447 488 212C487.67 213.32 487.34 214.64 487 216C484.36 216.99 481.72 217.98 479 219C478.01 219 477.02 219 476 219C475.517 217.658 475.033 216.316 474.535 214.934C474.049 213.12 473.563 211.306 473.062 209.438C472.546 207.528 472.029 205.619 471.496 203.652C471.002 201.787 470.509 199.922 470 198C469.216 195.195 468.433 192.39 467.625 189.5C467.089 187.355 466.553 185.21 466 183C466 181.35 466 179.7 466 178Z" fill="#D79E43"/>
<path d="M628 253C629.32 253.33 630.64 253.66 632 254C630.474 254.887 628.947 255.774 627.375 256.688C624.941 258.111 622.507 259.534 620 261C618.179 262.097 616.357 263.194 614.48 264.324C612.528 265.496 610.575 266.668 608.562 267.875C606.687 269.007 604.811 270.139 602.879 271.305C600.464 272.639 600.464 272.639 598 274C596.35 274.33 594.7 274.66 593 275C592.237 273.577 591.474 272.154 590.688 270.688C590.131 269.141 589.574 267.594 589 266C589 265.34 589 264.68 589 264C591.31 263.01 593.62 262.02 596 261C598.489 260.314 600.978 259.628 603.543 258.922C606.396 258.205 609.248 257.488 612.188 256.75C615.048 256.023 617.908 255.296 620.855 254.547C623.213 254.036 625.571 253.526 628 253Z" fill="#D89D41"/>
<path d="M557 179C557.33 179.99 557.66 180.98 558 182C557.608 184.109 557.216 186.218 556.812 188.391C556.214 190.984 555.616 193.578 555 196.25C554.134 200.125 554.134 200.125 553.25 204.078C552.507 206.362 551.765 208.647 551 211C549.866 212.48 548.731 213.96 547.562 215.484C546.387 216.315 545.211 217.145 544 218C542.35 217.67 540.7 217.34 539 217C538.01 216.34 537.02 215.68 536 215C536.99 212.03 536.99 212.03 538 209C539.651 206.216 539.651 206.216 541.336 203.375C542.669 201.271 544.002 199.168 545.375 197C546.703 194.896 548.03 192.793 549.398 190.625C551.181 187.841 551.181 187.841 553 185C554.32 183.02 555.64 181.04 557 179Z" fill="#D79F44"/>
<path d="M436 299C437.32 299 438.64 299 440 299C440.309 301.021 440.619 303.043 440.938 305.125C441.288 307.724 441.639 310.322 442 313C442.763 315.413 443.526 317.826 444.312 320.312C445.199 322.519 446.086 324.726 447 327C447.969 328.691 448.939 330.383 449.938 332.125C450.618 333.404 451.299 334.683 452 336C451.34 337.32 450.68 338.64 450 340C449.01 340 448.02 340 447 340C445.886 338.35 444.773 336.7 443.625 335C442.429 332.69 441.232 330.38 440 328C439.46 326.573 438.92 325.146 438.363 323.676C437.893 322.236 437.422 320.796 436.938 319.312C436.298 316.899 435.659 314.486 435 312C435.66 311.67 436.32 311.34 437 311C436.67 310.01 436.34 309.02 436 308C436 305.03 436 302.06 436 299Z" fill="#4B2816"/>
<path d="M648 320C648.33 320 648.66 320 649 320C649 322.64 649 325.28 649 328C648.67 328.33 648.34 328.66 648 329C647.732 330.65 647.464 332.3 647.188 334C646.796 335.98 646.404 337.96 646 340C645.041 342.351 645.041 342.351 644.062 344.75C643.382 346.153 642.701 347.555 642 349C641.01 351.31 640.02 353.62 639 356C637.68 358.64 636.36 361.28 635 364C634.34 365.65 633.68 367.3 633 369C631.701 370.65 630.401 372.3 629.062 374C627.722 375.65 626.381 377.3 625 379C624.01 380.65 623.02 382.3 622 384C620.102 385.918 618.205 387.836 616.25 389.812C614.188 391.854 612.125 393.896 610 396C608.721 397.506 607.442 399.011 606.125 400.562C605.094 401.697 604.062 402.831 603 404C601.02 404.99 599.04 405.98 597 407C595.02 408.32 593.04 409.64 591 411C590.34 410.67 589.68 410.34 589 410C590.732 408.742 592.465 407.484 594.25 406.188C596.477 404.476 598.705 402.764 601 401C602.959 399.329 604.919 397.659 606.938 395.938C608.938 393.978 610.939 392.019 613 390C614.098 388.769 615.197 387.538 616.328 386.27C617.991 384.28 617.991 384.28 619.688 382.25C620.765 380.887 621.843 379.525 622.953 378.121C623.959 376.761 624.964 375.401 626 374C626.861 372.712 627.722 371.424 628.609 370.098C629.762 368.224 629.762 368.224 630.938 366.312C632.278 363.899 633.619 361.486 635 359C636.031 357.082 637.062 355.164 638.125 353.188C639.074 350.816 640.022 348.444 641 346C641.623 343.824 642.245 341.648 642.887 339.406C643.84 335.833 643.84 335.833 644.812 332.188C645.396 329.892 645.98 327.596 646.582 325.23C647.05 323.504 647.518 321.778 648 320Z" fill="#D5A452"/>
<path d="M583 310C583.99 310 584.98 310 586 310C586.66 312.64 587.32 315.28 588 318C587.34 320.289 586.68 322.579 586 324.938C585.01 327.268 584.02 329.599 583 332C581.989 333.836 580.979 335.671 579.938 337.562C578.968 338.697 577.999 339.831 577 341C575.68 340.01 574.36 339.02 573 338C573.66 336.35 574.32 334.7 575 333C575.825 331.371 576.65 329.741 577.5 328.062C578.325 326.392 579.15 324.721 580 323C580.66 321.02 581.32 319.04 582 317C582.33 314.69 582.66 312.38 583 310Z" fill="#512F1B"/>
<path d="M549 359C550.32 359.66 551.64 360.32 553 361C553.33 361.66 553.66 362.32 554 363C551.989 364.392 551.989 364.392 549.938 365.812C547.978 366.864 546.019 367.916 544 369C541.566 369.969 539.132 370.939 536.625 371.938C534.439 372.618 532.253 373.299 530 374C528.68 373.67 527.36 373.34 526 373C526.99 373 527.98 373 529 373C529.33 371.35 529.66 369.7 530 368C532.599 366.783 535.197 365.566 537.875 364.312C540.556 363.219 543.237 362.126 546 361C546.99 360.34 547.98 359.68 549 359Z" fill="#4C2816"/>
<path d="M531 432C533.31 432 535.62 432 538 432C536.02 432.99 536.02 432.99 534 434C530.999 434.402 530.999 434.402 527.938 434.812C525.978 435.204 524.019 435.596 522 436C521.01 437.65 520.02 439.3 519 441C518.01 443.64 517.02 446.28 516 449C513.03 449 510.06 449 507 449C506.505 447.515 506.01 446.03 505.5 444.5C505.335 443.015 505.17 441.53 505 440C504.67 440 504.34 440 504 440C504 438.02 504 436.04 504 434C502.536 434.206 501.071 434.412 499.562 434.625C497.304 434.811 497.304 434.811 495 435C494.67 434.34 494.34 433.68 494 433C495.712 432.773 497.424 432.546 499.188 432.312C501.106 432.539 503.024 432.766 505 433C506.031 434.753 507.062 436.506 508.125 438.312C508.744 440.189 509.363 442.066 510 444C510.33 444.99 510.66 445.98 511 447C511.99 447.33 512.98 447.66 514 448C514.66 445.69 515.32 443.38 516 441C516.99 438.36 517.98 435.72 519 433C520.898 432.67 522.795 432.34 524.75 432C526.812 432 528.875 432 531 432Z" fill="#D6A556"/>
<path d="M430 323C430.99 323 431.98 323 433 323C432.67 323.99 432.34 324.98 432 326C430.02 326.66 428.04 327.32 426 328C424.391 329.093 422.783 330.186 421.125 331.312C418.588 333.138 418.588 333.138 416 335C414.494 335.928 412.989 336.856 411.438 337.812C410.303 338.534 409.169 339.256 408 340C407.67 340.66 407.34 341.32 407 342C408.98 342 410.96 342 413 342C413 342.33 413 342.66 413 343C410.422 343.701 407.844 344.402 405.188 345.125C402.486 345.744 399.784 346.363 397 347C396.01 346.67 395.02 346.34 394 346C397.62 343.649 397.62 343.649 401.312 341.25C402.848 340.259 404.383 339.267 405.965 338.246C407.626 337.175 409.288 336.104 411 335C412.734 333.877 414.468 332.754 416.254 331.598C418.789 329.972 418.789 329.972 421.375 328.312C422.95 327.298 424.525 326.284 426.148 325.238C427.419 324.5 428.69 323.761 430 323Z" fill="#CDA45A"/>
<path d="M339 285C339.33 285 339.66 285 340 285C339.997 286.504 339.995 288.009 339.992 289.559C339.954 291.499 339.915 293.439 339.875 295.438C339.831 297.375 339.787 299.312 339.742 301.309C339.827 302.857 339.912 304.405 340 306C340.99 306.33 341.98 306.66 343 307C343.144 309.475 343.289 311.95 343.438 314.5C343.498 316.034 343.559 317.568 343.621 319.148C343.809 321.55 343.809 321.55 344 324C344.3 325.539 344.601 327.078 344.91 328.664C345.27 330.136 345.629 331.608 346 333.125C346.99 337.023 346.99 337.023 348 341C348.33 343.31 348.66 345.62 349 348C348.34 347.01 347.68 346.02 347 345C346.526 343.405 346.051 341.811 345.562 340.168C345.047 338.194 344.531 336.221 344 334.188C343.207 331.053 343.207 331.053 342.398 327.855C341.937 325.923 341.475 323.991 341 322C340.319 318.535 340.319 318.535 339.625 315C339.419 312.69 339.213 310.38 339 308C338.952 306.033 338.905 304.066 338.855 302.039C338.841 299.922 338.827 297.806 338.812 295.625C338.819 293.617 338.825 291.608 338.832 289.539C338.887 288.041 338.943 286.543 339 285Z" fill="#B86E47"/>
<path d="M424 200C426.475 200.495 426.475 200.495 429 201C430.959 202.774 432.919 204.548 434.938 206.375C436.608 208.231 438.279 210.087 440 212C439.01 213.485 439.01 213.485 438 215C438.66 216.32 439.32 217.64 440 219C439.031 218.216 438.061 217.433 437.062 216.625C435.722 215.429 434.381 214.232 433 213C431.371 211.288 429.741 209.576 428.062 207.812C426.722 206.224 425.381 204.636 424 203C424 202.01 424 201.02 424 200Z" fill="#452614"/>
<path d="M508 73C508 73.99 508 74.98 508 76C505.938 77.9388 503.875 79.8775 501.75 81.875C500.59 82.9037 499.43 83.9323 498.234 84.9922C497.167 85.9848 496.1 86.9773 495 88C493.68 89.65 492.36 91.3 491 93C490.34 93 489.68 93 489 93C488.34 94.32 487.68 95.64 487 97C486.01 98.98 485.02 100.96 484 103C483.34 103 482.68 103 482 103C482.33 103.99 482.66 104.98 483 106C482.01 106.99 481.02 107.98 480 109C479.505 107.515 479.505 107.515 479 106C479.949 104.164 480.897 102.329 481.875 100.438C483.236 98.3131 484.597 96.1888 486 94C487.423 92.2881 488.846 90.5762 490.312 88.8125C492.633 86.4303 492.633 86.4303 495 84C496.774 82.35 498.548 80.7 500.375 79C501.901 77.68 503.428 76.36 505 75C505.99 74.34 506.98 73.68 508 73Z" fill="#B56139"/>
<path d="M512 370C513.32 370.33 514.64 370.66 516 371C515.01 371 514.02 371 513 371C512.923 372.822 512.846 374.643 512.767 376.52C512.831 379.044 512.895 381.568 512.961 384.168C513.02 386.898 513.08 389.627 513.141 392.439C513.218 395.326 513.295 398.213 513.375 401.188C513.445 404.055 513.514 406.923 513.586 409.877C513.648 412.613 513.71 415.349 513.773 418.168C513.84 420.697 513.906 423.227 513.974 425.833C513.983 427.868 513.991 429.903 514 432C513.505 434.475 513.505 434.475 513 437C512.34 436.67 511.68 436.34 511 436C510.773 433.999 510.546 431.999 510.312 429.938C510.209 427.978 510.106 426.019 510 424C510.33 424 510.66 424 511 424C511.068 422.364 511.136 420.728 511.205 419.043C511.242 416.781 511.279 414.518 511.316 412.188C511.358 409.751 511.4 407.315 511.443 404.805C511.502 400.941 511.502 400.941 511.562 397C511.606 394.424 511.649 391.849 511.693 389.195C511.734 386.759 511.775 384.323 511.816 381.812C511.852 379.55 511.887 377.288 511.924 374.957C511.949 373.321 511.974 371.685 512 370Z" fill="#955632"/>
<path d="M410 215C412.475 215.99 412.475 215.99 415 217C416.887 219.042 416.887 219.042 418.812 221.125C419.864 222.404 420.916 223.683 422 225C421.01 225.495 421.01 225.495 420 226C419.34 227.32 418.68 228.64 418 230C416.701 228.433 415.401 226.865 414.062 225.25C412.722 223.518 411.381 221.785 410 220C409.67 218.68 409.34 217.36 409 216C409.33 215.67 409.66 215.34 410 215Z" fill="#492818"/>
<path d="M552 275C553.32 275.33 554.64 275.66 556 276C555.01 276.66 554.02 277.32 553 278C551.02 278.66 549.04 279.32 547 280C545.123 281.959 543.246 283.919 541.312 285.938C539.559 287.938 537.806 289.939 536 292C535.01 292.99 534.02 293.98 533 295C533 296.32 533 297.64 533 299C533.99 299.99 534.98 300.98 536 302C535.67 302.66 535.34 303.32 535 304C533.02 302.02 531.04 300.04 529 298C529.33 296.68 529.66 295.36 530 294C531.201 292.667 532.403 291.334 533.641 289.961C535.162 288.448 536.683 286.934 538.25 285.375C539.761 283.856 541.272 282.338 542.828 280.773C544.205 279.528 545.582 278.283 547 277C548.65 276.34 550.3 275.68 552 275Z" fill="#D4A04D"/>
<path d="M517 149C517.99 149.99 518.98 150.98 520 152C520.227 154.042 520.454 156.084 520.688 158.188C520.791 160.106 520.894 162.024 521 164C521.66 163.67 522.32 163.34 523 163C526.31 163.186 526.31 163.186 529.688 163.375C532.101 163.581 534.514 163.787 537 164C539.31 164.33 541.62 164.66 544 165C546.31 165.99 548.62 166.98 551 168C552.98 168 554.96 168 557 168C557 168.99 557 169.98 557 171C555.453 170.732 553.906 170.464 552.312 170.188C550.229 169.796 548.146 169.404 546 169C542.844 168.227 542.844 168.227 539.625 167.438C537.439 166.963 535.253 166.489 533 166C529.473 166.062 529.473 166.062 525.875 166.125C523.936 165.754 521.997 165.382 520 165C519.237 162.896 518.474 160.793 517.688 158.625C517.461 156.439 517.234 154.253 517 152C517 151.01 517 150.02 517 149Z" fill="#D4A352"/>
<path d="M388 235C388.99 235.33 389.98 235.66 391 236C389.732 238.568 389.732 238.568 388.438 241.188C386.736 245.055 386.736 245.055 385 249C384.377 250.758 383.755 252.517 383.113 254.328C382.498 256.179 381.884 258.03 381.25 259.938C380.391 262.581 380.391 262.581 379.516 265.277C379.015 266.836 378.515 268.394 378 270C377.34 271.98 376.68 273.96 376 276C375.67 275.34 375.34 274.68 375 274C375.33 271.69 375.66 269.38 376 267C376.66 265.02 377.32 263.04 378 261C378.66 258.36 379.32 255.72 380 253C380.804 251.35 381.609 249.7 382.438 248C383.283 246.35 384.129 244.7 385 243C385.99 240.36 386.98 237.72 388 235Z" fill="#D39F4E"/>
<path d="M510 142C511.32 142 512.64 142 514 142C513.67 142.66 513.34 143.32 513 144C512.34 144 511.68 144 511 144C510.34 145.444 509.68 146.888 509 148.375C508.01 151.159 508.01 151.159 507 154C506.856 155.815 506.711 157.63 506.562 159.5C506.047 160.985 505.531 162.47 505 164C502.938 164.536 500.875 165.072 498.75 165.625C496.523 165.749 494.295 165.873 492 166C490.02 166 488.04 166 486 166C487.32 165.34 488.64 164.68 490 164C491.65 163.67 493.3 163.34 495 163C496.65 162.67 498.3 162.34 500 162C500.99 161.01 501.98 160.02 503 159C503.66 156.69 504.32 154.38 505 152C505.66 149.69 506.32 147.38 507 145C507.99 144.01 508.98 143.02 510 142Z" fill="#D6A553"/>
<path d="M665 369C665.66 369.33 666.32 369.66 667 370C665.928 372.042 664.855 374.084 663.75 376.188C663.01 377.44 662.27 378.693 661.508 379.984C660.68 381.31 659.853 382.635 659 384C658.111 385.346 657.221 386.692 656.305 388.078C654.978 389.989 654.978 389.989 653.625 391.938C652.099 393.938 650.572 395.939 649 398C648.34 397.67 647.68 397.34 647 397C647.66 395.68 648.32 394.36 649 393C649.99 392.67 650.98 392.34 652 392C652 391.01 652 390.02 652 389C652.66 389 653.32 389 654 389C654.33 387.68 654.66 386.36 655 385C655.804 383.433 656.609 381.865 657.438 380.25C658.706 378.146 658.706 378.146 660 376C660.66 376 661.32 376 662 376C662.66 374.02 663.32 372.04 664 370C664.33 369.67 664.66 369.34 665 369Z" fill="#B6613B"/>
<path d="M451 274C452.32 274.33 453.64 274.66 455 275C455 275.66 455 276.32 455 277C454.01 277.99 453.02 278.98 452 280C451.34 281.65 450.68 283.3 450 285C449.67 286.98 449.34 288.96 449 291C448.968 292.854 448.936 294.707 448.902 296.617C448.914 298.682 448.926 300.747 448.938 302.875C448.947 304.956 448.956 307.036 448.965 309.18C448.976 310.77 448.988 312.361 449 314C448.34 312.68 447.68 311.36 447 310C446.889 308.278 446.778 306.556 446.664 304.781C446.651 302.708 446.638 300.636 446.625 298.5C446.643 296.356 446.661 294.213 446.68 292.004C446.785 290.023 446.891 288.041 447 286C447.577 283.504 448.155 281.009 448.75 278.438C449.864 276.241 449.864 276.241 451 274Z" fill="#D2A153"/>
<path d="M531 232C532.32 232.33 533.64 232.66 535 233C534.67 234.98 534.34 236.96 534 239C533.897 241.929 533.794 244.858 533.688 247.875C533.65 249.399 533.613 250.922 533.574 252.492C533.385 253.98 533.195 255.467 533 257C531.68 259.64 530.36 262.28 529 265C528.01 265.495 528.01 265.495 527 266C527.33 264.35 527.66 262.7 528 261C528.99 259.02 529.98 257.04 531 255C531.097 253.554 531.193 252.107 531.293 250.617C531.258 249.052 531.223 247.487 531.188 245.875C531.126 242.946 531.064 240.017 531 237C531 235.68 531 234.36 531 233C531 232.67 531 232.34 531 232Z" fill="#D2A04D"/>
<path d="M511 316C511.99 316.33 512.98 316.66 514 317C512.35 318.32 510.7 319.64 509 321C507.948 322.403 506.896 323.805 505.812 325.25C504.884 326.487 503.956 327.725 503 329C502.34 329 501.68 329 501 329C500.67 330.32 500.34 331.64 500 333C498.329 334.567 496.659 336.135 494.938 337.75C493.308 339.153 491.679 340.555 490 342C490 341.01 490 340.02 490 339C490.857 337.986 491.714 336.971 492.598 335.926C493.741 334.733 494.884 333.541 496.062 332.312C497.836 330.445 497.836 330.445 499.645 328.539C500.752 327.371 501.859 326.203 503 325C504.403 323.412 505.805 321.824 507.25 320.188C508.158 319.136 509.065 318.084 510 317C510.33 316.67 510.66 316.34 511 316Z" fill="#D2A14C"/>
<path d="M637 295C638.65 295.124 640.3 295.248 642 295.375C643.98 295.581 645.96 295.787 648 296C650.64 296.66 653.28 297.32 656 298C656 298.66 656 299.32 656 300C653.546 300.004 651.091 300.008 648.562 300.012C647.029 299.965 645.495 299.918 643.914 299.869C642.292 299.809 640.671 299.749 639 299.688C636.568 299.615 636.568 299.615 634.086 299.541C632.552 299.49 631.018 299.439 629.438 299.387C626.983 299.259 624.529 299.131 622 299C622 298.67 622 298.34 622 298C625.713 297.783 625.713 297.783 629.5 297.562C633.213 297.284 633.213 297.284 637 297C637 296.34 637 295.68 637 295Z" fill="#9A5E38"/>
<path d="M418 207C419.32 207.66 420.64 208.32 422 209C424.351 211.289 424.351 211.289 426.75 213.625C428.153 215.069 429.555 216.513 431 218C429.68 218.33 428.36 218.66 427 219C425.68 218.67 424.36 218.34 423 218C421.907 216.907 420.814 215.814 419.688 214.688C418.801 213.471 417.914 212.254 417 211C417.33 209.68 417.66 208.36 418 207Z" fill="#4E2E19"/>
<path d="M391 174C391.66 174.33 392.32 174.66 393 175C392.402 176.774 391.804 178.548 391.188 180.375C390.466 182.231 389.744 184.087 389 186C388.67 186.99 388.34 187.98 388 189C387.938 190.753 387.876 192.506 387.812 194.312C387.874 196.189 387.936 198.066 388 200C388.66 201.98 389.32 203.96 390 206C389.34 206 388.68 206 388 206C387.443 204.556 386.886 203.112 386.312 201.625C385.879 199.769 385.446 197.913 385 196C385.062 194.226 385.124 192.452 385.188 190.625C385.456 189.099 385.724 187.572 386 186C386.66 184.68 387.32 183.36 388 182C386.68 182.33 385.36 182.66 384 183C384.66 181.68 385.32 180.36 386 179C387.32 178.34 388.64 177.68 390 177C390.33 176.01 390.66 175.02 391 174Z" fill="#B16A44"/>
<path d="M471 389C471.33 390.32 471.66 391.64 472 393C471.67 395.31 471.34 397.62 471 400C471.99 400.66 472.98 401.32 474 402C472.742 404.351 471.484 406.703 470.188 409.125C468.806 411.394 467.424 413.662 466 416C465.67 414.68 465.34 413.36 465 412C465.401 410.211 465.802 408.422 466.215 406.578C466.783 404.49 467.352 402.402 467.938 400.25C468.786 397.102 468.786 397.102 469.652 393.891C470.097 392.277 470.542 390.663 471 389Z" fill="#CBA256"/>
<path d="M616 387C616.66 387.33 617.32 387.66 618 388C616.824 389.155 615.649 390.31 614.438 391.5C612.973 392.985 611.509 394.47 610 396C608.804 397.423 607.607 398.846 606.375 400.312C605.261 401.529 604.148 402.746 603 404C601.02 404.99 599.04 405.98 597 407C595.02 408.32 593.04 409.64 591 411C590.34 410.67 589.68 410.34 589 410C591.599 408.113 591.599 408.113 594.25 406.188C597.591 403.62 597.591 403.62 601 401C603.166 399.061 605.331 397.122 607.562 395.125C609.357 393.434 611.151 391.742 613 390C613.99 389.01 614.98 388.02 616 387Z" fill="#D3A14C"/>
<path d="M511 155C511.33 155 511.66 155 512 155C512.067 156.337 512.134 157.674 512.203 159.051C512.219 160.787 512.234 162.524 512.25 164.312C512.276 166.041 512.302 167.77 512.328 169.551C512.22 171.019 512.112 172.487 512 174C511.01 174.99 510.02 175.98 509 177C508.67 178.98 508.34 180.96 508 183C507.34 183 506.68 183 506 183C506.33 180.69 506.66 178.38 507 176C507.309 174.258 507.619 172.517 507.938 170.723C508.288 168.855 508.639 166.987 509 165.062C509.351 163.177 509.701 161.291 510.062 159.348C510.372 157.913 510.681 156.478 511 155Z" fill="#AC6B40"/>
<path d="M588 443C589.32 443.33 590.64 443.66 592 444C590.68 444.99 589.36 445.98 588 447C586.52 447.651 585.04 448.302 583.516 448.973C581.778 449.662 580.04 450.352 578.25 451.062C576.523 451.755 574.795 452.447 573.016 453.16C571.36 453.767 569.705 454.374 568 455C565.36 455.66 562.72 456.32 560 457C560 456.34 560 455.68 560 455C561.732 454.299 563.465 453.598 565.25 452.875C567.148 452.256 569.045 451.637 571 451C572.32 451 573.64 451 575 451C575 450.34 575 449.68 575 449C576.98 448.34 578.96 447.68 581 447C582.32 447 583.64 447 585 447C585.33 446.01 585.66 445.02 586 444C586.66 443.67 587.32 443.34 588 443Z" fill="#B2623A"/>
<path d="M375 277C375.33 277 375.66 277 376 277C376.103 279.413 376.206 281.826 376.312 284.312C375.663 288.118 375.663 288.118 375 292C372.185 293.114 372.185 293.114 369.312 294.25C366.188 294.621 366.188 294.621 363 295C361.02 295.99 359.04 296.98 357 298C357 298.66 357 299.32 357 300C356.34 300 355.68 300 355 300C355 298.35 355 296.7 355 295C358.867 293.639 358.867 293.639 362.812 292.25C366.865 291.136 366.865 291.136 371 290C371.99 289.67 372.98 289.34 374 289C374.041 287.371 374.082 285.741 374.125 284.062C374.084 282.392 374.043 280.721 374 279C374.33 278.34 374.66 277.68 375 277Z" fill="#D6A353"/>
<path d="M474 124C474.66 124.99 475.32 125.98 476 127C475.67 129.31 475.34 131.62 475 134C474.67 135.98 474.34 137.96 474 140C472.855 143.063 472.855 143.063 471.688 146.188C470.801 148.106 469.914 150.024 469 152C467.68 152.99 466.36 153.98 465 155C465.33 153.68 465.66 152.36 466 151C466.784 149.247 467.567 147.494 468.375 145.688C469.241 143.481 470.108 141.274 471 139C471.598 136.277 472.196 133.555 472.812 130.75C473.204 128.523 473.596 126.295 474 124Z" fill="#B6633A"/>
<path d="M538 355C539.65 355 541.3 355 543 355C541.68 355.99 540.36 356.98 539 358C537.639 358.681 536.278 359.361 534.875 360.062C532.462 361.022 532.462 361.022 530 362C528.494 362.412 526.989 362.825 525.438 363.25C523.643 363.498 521.849 363.745 520 364C515.916 364.093 515.916 364.093 511.75 364.188C509.193 364.126 506.635 364.064 504 364C501.03 363.505 501.03 363.505 498 363C498 362.67 498 362.34 498 362C500.702 362 503.404 362 506.188 362C507.819 362.008 509.451 362.015 511.133 362.023C512.739 362.016 514.345 362.008 516 362C518.496 361.876 520.991 361.752 523.562 361.625C526.254 361.316 526.254 361.316 529 361C529.33 360.34 529.66 359.68 530 359C533.465 357.515 533.465 357.515 537 356C537.33 355.67 537.66 355.34 538 355Z" fill="#CCA04C"/>
<path d="M573 419C573.66 419.33 574.32 419.66 575 420C573.02 421.32 571.04 422.64 569 424C566.463 425.33 566.463 425.33 563.875 426.688C562.266 427.451 560.658 428.214 559 429C557.68 429.33 556.36 429.66 555 430C552.03 430 549.06 430 546 430C546.99 429.34 547.98 428.68 549 428C550.98 427.402 552.96 426.804 555 426.188C558.465 425.105 558.465 425.105 562 424C564.042 423.072 566.084 422.144 568.188 421.188C569.776 420.466 571.364 419.744 573 419Z" fill="#D4A350"/>
<path d="M682 310C682.66 310 683.32 310 684 310C684 312.64 684 315.28 684 318C683.734 319.488 683.469 320.975 683.195 322.508C682.842 324.031 682.489 325.555 682.125 327.125C681.777 328.654 681.429 330.183 681.07 331.758C680.717 333.158 680.364 334.558 680 336C679.34 337.98 678.68 339.96 678 342C677.67 342 677.34 342 677 342C677.33 339.69 677.66 337.38 678 335C678.495 332.216 678.99 329.431 679.5 326.562C679.995 323.737 680.49 320.911 681 318C681.33 315.36 681.66 312.72 682 310Z" fill="#B3633D"/>
<path d="M641 402C641.99 402 642.98 402 644 402C643.34 403.32 642.68 404.64 642 406C640.35 407.98 638.7 409.96 637 412C635.721 413.176 634.442 414.351 633.125 415.562C631.764 416.697 630.403 417.831 629 419C625.535 421.475 625.535 421.475 622 424C622.66 422.68 623.32 421.36 624 420C625.32 419.34 626.64 418.68 628 418C628.66 416.68 629.32 415.36 630 414C630.66 414 631.32 414 632 414C632 413.34 632 412.68 632 412C633.114 411.051 634.227 410.103 635.375 409.125C636.571 408.094 637.768 407.062 639 406C639.66 404.68 640.32 403.36 641 402Z" fill="#AF5C36"/>
<path d="M572 320C572.66 320 573.32 320 574 320C573.67 321.65 573.34 323.3 573 325C572.278 326.506 571.556 328.011 570.812 329.562C569.884 330.697 568.956 331.831 568 333C566.02 331.68 564.04 330.36 562 329C560.35 327.02 558.7 325.04 557 323C558.98 323.99 558.98 323.99 561 325C564.465 326.98 564.465 326.98 568 329C568.619 327.515 569.238 326.03 569.875 324.5C570.576 323.015 571.277 321.53 572 320Z" fill="#D1A150"/>
<path d="M618 260C618.66 260.33 619.32 260.66 620 261C617.705 262.39 617.705 262.39 615.363 263.809C613.367 265.006 611.37 266.204 609.312 267.438C607.329 268.632 605.345 269.827 603.301 271.059C600.677 272.515 600.677 272.515 598 274C596.35 274.33 594.7 274.66 593 275C593.66 274.01 594.32 273.02 595 272C596.609 271.072 598.217 270.144 599.875 269.188C601.896 268.136 603.918 267.084 606 266C608.166 264.866 610.331 263.731 612.562 262.562C614.357 261.717 616.151 260.871 618 260Z" fill="#D1A04F"/>
<path d="M633 235C634.32 235 635.64 235 637 235C637.536 236.567 638.072 238.135 638.625 239.75C639.079 241.482 639.532 243.215 640 245C640.66 246.32 641.32 247.64 642 249C642 250.32 642 251.64 642 253C642.66 253 643.32 253 644 253C644.206 254.485 644.412 255.97 644.625 257.5C644.749 258.985 644.873 260.47 645 262C644.34 261.01 643.68 260.02 643 259C642.465 257.674 641.93 256.347 641.379 254.98C640.779 253.399 640.18 251.817 639.562 250.188C638.966 248.614 638.369 247.04 637.754 245.418C637.175 243.96 636.596 242.502 636 241C635.01 239.02 634.02 237.04 633 235Z" fill="#D6A457"/>
</svg>
